<svg xmlns="http://www.w3.org/2000/svg" xmlns:xlink="http://www.w3.org/1999/xlink" width="3125" zoomAndPan="magnify" viewBox="0 0 2343.75 2343.74993" height="3125" preserveAspectRatio="xMidYMid meet" version="1.0"><defs><clipPath id="397530d9e7"><path d="M 37 1542 L 1062 1542 L 1062 2215 L 37 2215 Z M 37 1542 " clip-rule="nonzero"/></clipPath><clipPath id="4a5078ba5c"><path d="M 1195.414062 2028.902344 L 138.265625 2350.699219 L -29.996094 1797.933594 L 1027.152344 1476.136719 Z M 1195.414062 2028.902344 " clip-rule="nonzero"/></clipPath><clipPath id="9e9918deb5"><path d="M 862.480469 1548.96875 C 881.59375 1543.152344 901.917969 1541.316406 923.453125 1543.460938 C 1008.011719 1552.527344 1069.234375 1627.871094 1060.164062 1712.429688 C 1037.152344 1936.976562 882.660156 2124.105469 666.839844 2189.800781 C 451.019531 2255.496094 218.46875 2186.183594 73.445312 2012.785156 C 18.804688 1947.621094 27.421875 1850.148438 92.828125 1796.304688 C 157.992188 1741.660156 255.460938 1750.277344 309.308594 1815.683594 C 374.6875 1893.242188 479.984375 1924.710938 577.144531 1895.136719 C 674.304688 1865.5625 743.410156 1781.003906 754.488281 1680.171875 C 760.613281 1617.394531 805.140625 1566.421875 862.480469 1548.96875 Z M 862.480469 1548.96875 " clip-rule="nonzero"/></clipPath><clipPath id="f536d41a97"><path d="M 754.417969 616.058594 L 1060.730469 616.058594 L 1060.730469 1686.320312 L 754.417969 1686.320312 Z M 754.417969 616.058594 " clip-rule="nonzero"/></clipPath><clipPath id="55af5193fb"><path d="M 754.417969 462.902344 L 1060.386719 462.902344 L 1060.386719 768.871094 L 754.417969 768.871094 Z M 754.417969 462.902344 " clip-rule="nonzero"/></clipPath><clipPath id="d409e2be77"><path d="M 1282 129 L 2306 129 L 2306 801 L 1282 801 Z M 1282 129 " clip-rule="nonzero"/></clipPath><clipPath id="f99823cabf"><path d="M 1148.085938 314.589844 L 2205.234375 -7.207031 L 2373.496094 545.558594 L 1316.347656 867.355469 Z M 1148.085938 314.589844 " clip-rule="nonzero"/></clipPath><clipPath id="b31bf1e351"><path d="M 1481.019531 794.523438 C 1461.90625 800.339844 1441.582031 802.175781 1420.046875 800.03125 C 1335.488281 790.960938 1274.265625 715.621094 1283.332031 631.0625 C 1306.347656 406.511719 1460.839844 219.386719 1676.660156 153.691406 C 1892.480469 87.996094 2125.03125 157.304688 2270.050781 330.707031 C 2324.695312 395.867188 2316.078125 493.339844 2250.671875 547.1875 C 2185.507812 601.832031 2088.035156 593.214844 2034.191406 527.808594 C 1968.8125 450.25 1863.515625 418.777344 1766.355469 448.355469 C 1669.195312 477.929688 1600.089844 562.488281 1589.011719 663.320312 C 1582.886719 726.097656 1538.359375 777.066406 1481.019531 794.523438 Z M 1481.019531 794.523438 " clip-rule="nonzero"/></clipPath><clipPath id="4cf5f5601c"><path d="M 1282.769531 657.171875 L 1589.082031 657.171875 L 1589.082031 1727.433594 L 1282.769531 1727.433594 Z M 1282.769531 657.171875 " clip-rule="nonzero"/></clipPath><clipPath id="2c96c04286"><path d="M 1283.113281 1574.621094 L 1589.082031 1574.621094 L 1589.082031 1880.589844 L 1283.113281 1880.589844 Z M 1283.113281 1574.621094 " clip-rule="nonzero"/></clipPath><clipPath id="1dddee15ff"><path d="M 1757.625 769.214844 L 2063.59375 769.214844 L 2063.59375 1075.183594 L 1757.625 1075.183594 Z M 1757.625 769.214844 " clip-rule="nonzero"/></clipPath></defs><g clip-path="url(#397530d9e7)"><g clip-path="url(#4a5078ba5c)"><g clip-path="url(#9e9918deb5)"><path fill="#ca5b32" d="M 1171.746094 2036.105469 L 161.933594 2343.492188 L -0.00390625 1811.507812 L 1009.808594 1504.121094 Z M 1171.746094 2036.105469 " fill-opacity="1" fill-rule="nonzero"/></g></g></g><g clip-path="url(#f536d41a97)"><path fill="#ca5b32" d="M 754.417969 616.058594 L 1060.730469 616.058594 L 1060.730469 1686.320312 L 754.417969 1686.320312 Z M 754.417969 616.058594 " fill-opacity="1" fill-rule="nonzero"/></g><g clip-path="url(#55af5193fb)"><path fill="#ca5b32" d="M 1060.726562 616.054688 C 1060.726562 618.5625 1060.664062 621.066406 1060.542969 623.570312 C 1060.417969 626.074219 1060.234375 628.574219 1059.988281 631.066406 C 1059.742188 633.5625 1059.4375 636.050781 1059.070312 638.527344 C 1058.703125 641.007812 1058.273438 643.476562 1057.785156 645.933594 C 1057.292969 648.394531 1056.746094 650.839844 1056.136719 653.269531 C 1055.527344 655.699219 1054.859375 658.117188 1054.132812 660.515625 C 1053.402344 662.914062 1052.617188 665.292969 1051.773438 667.652344 C 1050.929688 670.011719 1050.027344 672.351562 1049.070312 674.664062 C 1048.109375 676.980469 1047.09375 679.273438 1046.023438 681.539062 C 1044.949219 683.804688 1043.824219 686.042969 1042.640625 688.253906 C 1041.460938 690.464844 1040.226562 692.644531 1038.9375 694.792969 C 1037.648438 696.941406 1036.308594 699.058594 1034.914062 701.144531 C 1033.523438 703.226562 1032.082031 705.277344 1030.585938 707.289062 C 1029.09375 709.304688 1027.550781 711.277344 1025.960938 713.214844 C 1024.371094 715.152344 1022.734375 717.050781 1021.050781 718.90625 C 1019.367188 720.765625 1017.640625 722.578125 1015.867188 724.351562 C 1014.097656 726.125 1012.28125 727.851562 1010.425781 729.535156 C 1008.566406 731.21875 1006.671875 732.855469 1004.734375 734.445312 C 1002.796875 736.035156 1000.820312 737.578125 998.804688 739.070312 C 996.792969 740.5625 994.746094 742.007812 992.660156 743.398438 C 990.578125 744.792969 988.460938 746.132812 986.308594 747.421875 C 984.160156 748.710938 981.980469 749.945312 979.769531 751.125 C 977.558594 752.308594 975.320312 753.433594 973.054688 754.503906 C 970.789062 755.578125 968.5 756.59375 966.183594 757.550781 C 963.867188 758.511719 961.527344 759.414062 959.167969 760.257812 C 956.808594 761.101562 954.429688 761.886719 952.03125 762.613281 C 949.632812 763.34375 947.21875 764.011719 944.785156 764.621094 C 942.355469 765.230469 939.910156 765.777344 937.453125 766.265625 C 934.992188 766.757812 932.523438 767.183594 930.046875 767.550781 C 927.566406 767.921875 925.078125 768.226562 922.585938 768.472656 C 920.089844 768.71875 917.589844 768.902344 915.089844 769.027344 C 912.585938 769.148438 910.078125 769.210938 907.574219 769.210938 C 905.066406 769.210938 902.5625 769.148438 900.058594 769.027344 C 897.554688 768.902344 895.054688 768.71875 892.5625 768.472656 C 890.066406 768.226562 887.582031 767.921875 885.101562 767.550781 C 882.621094 767.183594 880.152344 766.757812 877.695312 766.265625 C 875.234375 765.777344 872.792969 765.230469 870.359375 764.621094 C 867.929688 764.011719 865.511719 763.34375 863.113281 762.613281 C 860.714844 761.886719 858.335938 761.101562 855.976562 760.257812 C 853.617188 759.414062 851.28125 758.511719 848.964844 757.550781 C 846.648438 756.59375 844.355469 755.578125 842.089844 754.503906 C 839.824219 753.433594 837.585938 752.308594 835.378906 751.125 C 833.167969 749.945312 830.984375 748.710938 828.835938 747.421875 C 826.6875 746.132812 824.570312 744.792969 822.484375 743.398438 C 820.402344 742.007812 818.351562 740.5625 816.339844 739.070312 C 814.328125 737.578125 812.351562 736.035156 810.414062 734.445312 C 808.476562 732.855469 806.578125 731.21875 804.722656 729.535156 C 802.863281 727.851562 801.050781 726.125 799.277344 724.351562 C 797.503906 722.578125 795.777344 720.765625 794.09375 718.90625 C 792.410156 717.050781 790.773438 715.152344 789.183594 713.214844 C 787.59375 711.277344 786.050781 709.304688 784.558594 707.289062 C 783.066406 705.277344 781.625 703.226562 780.230469 701.144531 C 778.839844 699.058594 777.496094 696.941406 776.207031 694.792969 C 774.921875 692.644531 773.683594 690.464844 772.503906 688.253906 C 771.320312 686.042969 770.195312 683.804688 769.125 681.539062 C 768.050781 679.273438 767.035156 676.980469 766.078125 674.664062 C 765.117188 672.351562 764.214844 670.011719 763.371094 667.652344 C 762.527344 665.292969 761.742188 662.914062 761.015625 660.515625 C 760.285156 658.117188 759.617188 655.699219 759.007812 653.269531 C 758.398438 650.839844 757.851562 648.394531 757.363281 645.933594 C 756.875 643.476562 756.445312 641.007812 756.078125 638.527344 C 755.710938 636.050781 755.402344 633.5625 755.15625 631.066406 C 754.910156 628.574219 754.726562 626.074219 754.605469 623.570312 C 754.480469 621.066406 754.417969 618.5625 754.417969 616.054688 C 754.417969 613.550781 754.480469 611.046875 754.605469 608.542969 C 754.726562 606.039062 754.910156 603.539062 755.15625 601.042969 C 755.402344 598.550781 755.710938 596.0625 756.078125 593.585938 C 756.445312 591.105469 756.875 588.636719 757.363281 586.175781 C 757.851562 583.71875 758.398438 581.273438 759.007812 578.84375 C 759.617188 576.410156 760.285156 573.996094 761.015625 571.597656 C 761.742188 569.199219 762.527344 566.820312 763.371094 564.460938 C 764.214844 562.101562 765.117188 559.761719 766.078125 557.445312 C 767.035156 555.132812 768.050781 552.839844 769.125 550.574219 C 770.195312 548.308594 771.320312 546.070312 772.503906 543.859375 C 773.683594 541.648438 774.921875 539.46875 776.207031 537.320312 C 777.496094 535.167969 778.839844 533.054688 780.230469 530.96875 C 781.625 528.886719 783.066406 526.835938 784.558594 524.824219 C 786.050781 522.808594 787.59375 520.835938 789.183594 518.898438 C 790.773438 516.960938 792.410156 515.0625 794.09375 513.203125 C 795.777344 511.347656 797.503906 509.53125 799.277344 507.761719 C 801.050781 505.988281 802.863281 504.261719 804.722656 502.578125 C 806.578125 500.894531 808.476562 499.257812 810.414062 497.667969 C 812.351562 496.078125 814.328125 494.535156 816.339844 493.042969 C 818.351562 491.550781 820.402344 490.105469 822.484375 488.714844 C 824.570312 487.320312 826.6875 485.980469 828.835938 484.691406 C 830.984375 483.402344 833.167969 482.167969 835.378906 480.988281 C 837.585938 479.804688 839.824219 478.679688 842.089844 477.605469 C 844.355469 476.535156 846.648438 475.519531 848.964844 474.5625 C 851.28125 473.601562 853.617188 472.699219 855.976562 471.855469 C 858.335938 471.011719 860.714844 470.226562 863.113281 469.496094 C 865.511719 468.769531 867.929688 468.101562 870.359375 467.492188 C 872.792969 466.882812 875.234375 466.335938 877.695312 465.84375 C 880.152344 465.355469 882.621094 464.929688 885.101562 464.558594 C 887.582031 464.191406 890.066406 463.886719 892.5625 463.640625 C 895.054688 463.394531 897.554688 463.210938 900.058594 463.085938 C 902.5625 462.964844 905.066406 462.902344 907.574219 462.902344 C 910.078125 462.902344 912.585938 462.964844 915.089844 463.085938 C 917.589844 463.210938 920.089844 463.394531 922.585938 463.640625 C 925.078125 463.886719 927.566406 464.191406 930.046875 464.558594 C 932.523438 464.929688 934.992188 465.355469 937.453125 465.84375 C 939.910156 466.335938 942.355469 466.882812 944.785156 467.492188 C 947.21875 468.101562 949.632812 468.769531 952.03125 469.496094 C 954.429688 470.226562 956.808594 471.011719 959.167969 471.855469 C 961.527344 472.699219 963.867188 473.601562 966.183594 474.5625 C 968.5 475.519531 970.789062 476.535156 973.054688 477.605469 C 975.320312 478.679688 977.558594 479.804688 979.769531 480.988281 C 981.980469 482.167969 984.160156 483.402344 986.308594 484.691406 C 988.460938 485.980469 990.578125 487.320312 992.660156 488.714844 C 994.746094 490.105469 996.792969 491.550781 998.804688 493.042969 C 1000.820312 494.535156 1002.796875 496.078125 1004.734375 497.667969 C 1006.671875 499.257812 1008.566406 500.894531 1010.425781 502.578125 C 1012.28125 504.261719 1014.097656 505.988281 1015.867188 507.761719 C 1017.640625 509.53125 1019.367188 511.347656 1021.050781 513.203125 C 1022.734375 515.0625 1024.371094 516.960938 1025.960938 518.898438 C 1027.550781 520.835938 1029.09375 522.808594 1030.585938 524.824219 C 1032.082031 526.835938 1033.523438 528.886719 1034.914062 530.96875 C 1036.308594 533.054688 1037.648438 535.167969 1038.9375 537.320312 C 1040.226562 539.46875 1041.460938 541.648438 1042.640625 543.859375 C 1043.824219 546.070312 1044.949219 548.308594 1046.023438 550.574219 C 1047.09375 552.839844 1048.109375 555.132812 1049.070312 557.445312 C 1050.027344 559.761719 1050.929688 562.101562 1051.773438 564.460938 C 1052.617188 566.820312 1053.402344 569.199219 1054.132812 571.597656 C 1054.859375 573.996094 1055.527344 576.410156 1056.136719 578.84375 C 1056.746094 581.273438 1057.292969 583.71875 1057.785156 586.175781 C 1058.273438 588.636719 1058.703125 591.105469 1059.070312 593.585938 C 1059.4375 596.0625 1059.742188 598.550781 1059.988281 601.042969 C 1060.234375 603.539062 1060.417969 606.039062 1060.542969 608.542969 C 1060.664062 611.046875 1060.726562 613.550781 1060.726562 616.054688 Z M 1060.726562 616.054688 " fill-opacity="1" fill-rule="nonzero"/></g><g clip-path="url(#d409e2be77)"><g clip-path="url(#f99823cabf)"><g clip-path="url(#b31bf1e351)"><path fill="#ca5b32" d="M 1171.753906 307.386719 L 2181.566406 0 L 2343.503906 531.980469 L 1333.691406 839.371094 Z M 1171.753906 307.386719 " fill-opacity="1" fill-rule="nonzero"/></g></g></g><g clip-path="url(#4cf5f5601c)"><path fill="#ca5b32" d="M 1589.082031 1727.433594 L 1282.769531 1727.433594 L 1282.769531 657.171875 L 1589.082031 657.171875 Z M 1589.082031 1727.433594 " fill-opacity="1" fill-rule="nonzero"/></g><g clip-path="url(#2c96c04286)"><path fill="#ca5b32" d="M 1282.773438 1727.433594 C 1282.773438 1724.929688 1282.835938 1722.421875 1282.957031 1719.917969 C 1283.082031 1717.417969 1283.265625 1714.917969 1283.511719 1712.421875 C 1283.757812 1709.929688 1284.0625 1707.441406 1284.429688 1704.960938 C 1284.796875 1702.484375 1285.226562 1700.015625 1285.714844 1697.554688 C 1286.207031 1695.097656 1286.753906 1692.652344 1287.363281 1690.222656 C 1287.972656 1687.789062 1288.640625 1685.375 1289.367188 1682.976562 C 1290.09375 1680.578125 1290.882812 1678.199219 1291.726562 1675.839844 C 1292.570312 1673.480469 1293.472656 1671.140625 1294.429688 1668.824219 C 1295.390625 1666.507812 1296.40625 1664.21875 1297.476562 1661.953125 C 1298.550781 1659.6875 1299.675781 1657.449219 1300.859375 1655.238281 C 1302.039062 1653.027344 1303.273438 1650.847656 1304.5625 1648.699219 C 1305.851562 1646.546875 1307.191406 1644.429688 1308.585938 1642.347656 C 1309.976562 1640.261719 1311.417969 1638.214844 1312.914062 1636.203125 C 1314.40625 1634.1875 1315.949219 1632.210938 1317.539062 1630.273438 C 1319.128906 1628.335938 1320.765625 1626.441406 1322.449219 1624.582031 C 1324.128906 1622.726562 1325.859375 1620.910156 1327.632812 1619.140625 C 1329.402344 1617.367188 1331.21875 1615.640625 1333.074219 1613.957031 C 1334.933594 1612.273438 1336.828125 1610.636719 1338.765625 1609.046875 C 1340.703125 1607.457031 1342.679688 1605.914062 1344.695312 1604.421875 C 1346.707031 1602.925781 1348.753906 1601.484375 1350.839844 1600.09375 C 1352.921875 1598.699219 1355.039062 1597.359375 1357.191406 1596.070312 C 1359.339844 1594.78125 1361.519531 1593.546875 1363.730469 1592.367188 C 1365.941406 1591.183594 1368.179688 1590.058594 1370.445312 1588.984375 C 1372.710938 1587.914062 1375 1586.898438 1377.316406 1585.9375 C 1379.632812 1584.980469 1381.972656 1584.078125 1384.332031 1583.234375 C 1386.691406 1582.390625 1389.070312 1581.605469 1391.46875 1580.875 C 1393.867188 1580.148438 1396.28125 1579.480469 1398.714844 1578.871094 C 1401.144531 1578.261719 1403.589844 1577.714844 1406.046875 1577.222656 C 1408.507812 1576.734375 1410.976562 1576.308594 1413.453125 1575.9375 C 1415.933594 1575.570312 1418.421875 1575.265625 1420.914062 1575.019531 C 1423.410156 1574.773438 1425.910156 1574.589844 1428.410156 1574.464844 C 1430.914062 1574.34375 1433.421875 1574.28125 1435.925781 1574.28125 C 1438.433594 1574.28125 1440.9375 1574.34375 1443.441406 1574.464844 C 1445.945312 1574.589844 1448.445312 1574.773438 1450.9375 1575.019531 C 1453.433594 1575.265625 1455.917969 1575.570312 1458.398438 1575.9375 C 1460.878906 1576.308594 1463.347656 1576.734375 1465.804688 1577.222656 C 1468.265625 1577.714844 1470.707031 1578.261719 1473.140625 1578.871094 C 1475.570312 1579.480469 1477.988281 1580.148438 1480.386719 1580.875 C 1482.785156 1581.605469 1485.164062 1582.390625 1487.523438 1583.234375 C 1489.882812 1584.078125 1492.21875 1584.980469 1494.535156 1585.9375 C 1496.851562 1586.898438 1499.144531 1587.914062 1501.410156 1588.984375 C 1503.675781 1590.058594 1505.914062 1591.183594 1508.121094 1592.367188 C 1510.332031 1593.546875 1512.511719 1594.78125 1514.664062 1596.070312 C 1516.8125 1597.359375 1518.929688 1598.699219 1521.015625 1600.09375 C 1523.097656 1601.484375 1525.148438 1602.925781 1527.160156 1604.421875 C 1529.171875 1605.914062 1531.148438 1607.457031 1533.085938 1609.046875 C 1535.023438 1610.636719 1536.921875 1612.273438 1538.777344 1613.957031 C 1540.636719 1615.640625 1542.449219 1617.367188 1544.222656 1619.140625 C 1545.996094 1620.910156 1547.722656 1622.726562 1549.40625 1624.582031 C 1551.089844 1626.441406 1552.726562 1628.335938 1554.316406 1630.273438 C 1555.90625 1632.210938 1557.449219 1634.1875 1558.941406 1636.203125 C 1560.433594 1638.214844 1561.875 1640.261719 1563.269531 1642.347656 C 1564.660156 1644.429688 1566.003906 1646.546875 1567.292969 1648.699219 C 1568.578125 1650.847656 1569.816406 1653.027344 1570.996094 1655.238281 C 1572.179688 1657.449219 1573.304688 1659.6875 1574.375 1661.953125 C 1575.449219 1664.21875 1576.464844 1666.507812 1577.421875 1668.824219 C 1578.382812 1671.140625 1579.285156 1673.480469 1580.128906 1675.839844 C 1580.972656 1678.199219 1581.757812 1680.578125 1582.484375 1682.976562 C 1583.214844 1685.375 1583.882812 1687.789062 1584.492188 1690.222656 C 1585.101562 1692.652344 1585.648438 1695.097656 1586.136719 1697.554688 C 1586.625 1700.015625 1587.054688 1702.484375 1587.421875 1704.960938 C 1587.789062 1707.441406 1588.097656 1709.929688 1588.34375 1712.421875 C 1588.589844 1714.917969 1588.773438 1717.417969 1588.894531 1719.917969 C 1589.019531 1722.421875 1589.082031 1724.929688 1589.082031 1727.433594 C 1589.082031 1729.941406 1589.019531 1732.445312 1588.894531 1734.949219 C 1588.773438 1737.453125 1588.589844 1739.953125 1588.34375 1742.445312 C 1588.097656 1744.941406 1587.789062 1747.425781 1587.421875 1749.90625 C 1587.054688 1752.386719 1586.625 1754.855469 1586.136719 1757.3125 C 1585.648438 1759.773438 1585.101562 1762.214844 1584.492188 1764.648438 C 1583.882812 1767.078125 1583.214844 1769.496094 1582.484375 1771.894531 C 1581.757812 1774.292969 1580.972656 1776.671875 1580.128906 1779.03125 C 1579.285156 1781.390625 1578.382812 1783.726562 1577.421875 1786.042969 C 1576.464844 1788.359375 1575.449219 1790.652344 1574.375 1792.917969 C 1573.304688 1795.183594 1572.179688 1797.421875 1570.996094 1799.632812 C 1569.816406 1801.839844 1568.578125 1804.023438 1567.292969 1806.171875 C 1566.003906 1808.320312 1564.660156 1810.4375 1563.269531 1812.523438 C 1561.875 1814.605469 1560.433594 1816.65625 1558.941406 1818.667969 C 1557.449219 1820.679688 1555.90625 1822.65625 1554.316406 1824.59375 C 1552.726562 1826.53125 1551.089844 1828.429688 1549.40625 1830.285156 C 1547.722656 1832.144531 1545.996094 1833.957031 1544.222656 1835.730469 C 1542.449219 1837.503906 1540.636719 1839.230469 1538.777344 1840.914062 C 1536.921875 1842.597656 1535.023438 1844.234375 1533.085938 1845.824219 C 1531.148438 1847.414062 1529.171875 1848.957031 1527.160156 1850.449219 C 1525.148438 1851.941406 1523.097656 1853.386719 1521.015625 1854.777344 C 1518.929688 1856.167969 1516.8125 1857.511719 1514.664062 1858.800781 C 1512.511719 1860.085938 1510.332031 1861.324219 1508.121094 1862.503906 C 1505.914062 1863.6875 1503.675781 1864.8125 1501.410156 1865.882812 C 1499.144531 1866.957031 1496.851562 1867.972656 1494.535156 1868.929688 C 1492.21875 1869.890625 1489.882812 1870.792969 1487.523438 1871.636719 C 1485.164062 1872.480469 1482.785156 1873.265625 1480.386719 1873.992188 C 1477.988281 1874.722656 1475.570312 1875.390625 1473.140625 1876 C 1470.707031 1876.609375 1468.265625 1877.15625 1465.804688 1877.644531 C 1463.347656 1878.132812 1460.878906 1878.5625 1458.398438 1878.929688 C 1455.917969 1879.296875 1453.433594 1879.605469 1450.9375 1879.851562 C 1448.445312 1880.097656 1445.945312 1880.28125 1443.441406 1880.402344 C 1440.9375 1880.527344 1438.433594 1880.589844 1435.925781 1880.589844 C 1433.421875 1880.589844 1430.914062 1880.527344 1428.410156 1880.402344 C 1425.910156 1880.28125 1423.410156 1880.097656 1420.914062 1879.851562 C 1418.421875 1879.605469 1415.933594 1879.296875 1413.453125 1878.929688 C 1410.976562 1878.5625 1408.507812 1878.132812 1406.046875 1877.644531 C 1403.589844 1877.15625 1401.144531 1876.609375 1398.714844 1876 C 1396.28125 1875.390625 1393.867188 1874.722656 1391.46875 1873.992188 C 1389.070312 1873.265625 1386.691406 1872.480469 1384.332031 1871.636719 C 1381.972656 1870.792969 1379.632812 1869.890625 1377.316406 1868.929688 C 1375 1867.972656 1372.710938 1866.957031 1370.445312 1865.882812 C 1368.179688 1864.8125 1365.941406 1863.6875 1363.730469 1862.503906 C 1361.519531 1861.324219 1359.339844 1860.085938 1357.191406 1858.800781 C 1355.039062 1857.511719 1352.921875 1856.167969 1350.839844 1854.777344 C 1348.753906 1853.386719 1346.707031 1851.941406 1344.695312 1850.449219 C 1342.679688 1848.957031 1340.703125 1847.414062 1338.765625 1845.824219 C 1336.828125 1844.234375 1334.933594 1842.597656 1333.074219 1840.914062 C 1331.21875 1839.230469 1329.402344 1837.503906 1327.632812 1835.730469 C 1325.859375 1833.957031 1324.128906 1832.144531 1322.449219 1830.285156 C 1320.765625 1828.429688 1319.128906 1826.53125 1317.539062 1824.59375 C 1315.949219 1822.65625 1314.40625 1820.679688 1312.914062 1818.667969 C 1311.417969 1816.65625 1309.976562 1814.605469 1308.585938 1812.523438 C 1307.191406 1810.4375 1305.851562 1808.320312 1304.5625 1806.171875 C 1303.273438 1804.023438 1302.039062 1801.839844 1300.859375 1799.632812 C 1299.675781 1797.421875 1298.550781 1795.183594 1297.476562 1792.917969 C 1296.40625 1790.652344 1295.390625 1788.359375 1294.429688 1786.042969 C 1293.472656 1783.726562 1292.570312 1781.390625 1291.726562 1779.03125 C 1290.882812 1776.671875 1290.09375 1774.292969 1289.367188 1771.894531 C 1288.640625 1769.496094 1287.972656 1767.078125 1287.363281 1764.648438 C 1286.753906 1762.214844 1286.207031 1759.773438 1285.714844 1757.3125 C 1285.226562 1754.855469 1284.796875 1752.386719 1284.429688 1749.90625 C 1284.0625 1747.425781 1283.757812 1744.941406 1283.511719 1742.445312 C 1283.265625 1739.953125 1283.082031 1737.453125 1282.957031 1734.949219 C 1282.835938 1732.445312 1282.773438 1729.941406 1282.773438 1727.433594 Z M 1282.773438 1727.433594 " fill-opacity="1" fill-rule="nonzero"/></g><g clip-path="url(#1dddee15ff)"><path fill="#ca5b32" d="M 2063.933594 922.371094 C 2063.933594 924.875 2063.871094 927.378906 2063.746094 929.882812 C 2063.625 932.386719 2063.441406 934.886719 2063.195312 937.382812 C 2062.949219 939.875 2062.640625 942.363281 2062.273438 944.839844 C 2061.90625 947.320312 2061.476562 949.789062 2060.988281 952.246094 C 2060.5 954.707031 2059.953125 957.152344 2059.34375 959.582031 C 2058.734375 962.015625 2058.066406 964.429688 2057.335938 966.828125 C 2056.609375 969.226562 2055.824219 971.605469 2054.980469 973.964844 C 2054.136719 976.324219 2053.234375 978.664062 2052.273438 980.976562 C 2051.316406 983.292969 2050.300781 985.585938 2049.226562 987.851562 C 2048.15625 990.117188 2047.03125 992.355469 2045.847656 994.566406 C 2044.667969 996.777344 2043.429688 998.957031 2042.144531 1001.105469 C 2040.855469 1003.253906 2039.511719 1005.371094 2038.121094 1007.457031 C 2036.726562 1009.539062 2035.285156 1011.589844 2033.792969 1013.601562 C 2032.300781 1015.617188 2030.757812 1017.589844 2029.167969 1019.527344 C 2027.578125 1021.464844 2025.941406 1023.363281 2024.257812 1025.222656 C 2022.574219 1027.078125 2020.847656 1028.894531 2019.074219 1030.664062 C 2017.300781 1032.4375 2015.488281 1034.164062 2013.628906 1035.847656 C 2011.773438 1037.53125 2009.875 1039.167969 2007.9375 1040.757812 C 2006 1042.347656 2004.023438 1043.890625 2002.011719 1045.382812 C 2000 1046.875 1997.949219 1048.320312 1995.867188 1049.710938 C 1993.78125 1051.105469 1991.664062 1052.445312 1989.515625 1053.734375 C 1987.367188 1055.023438 1985.183594 1056.257812 1982.972656 1057.4375 C 1980.765625 1058.621094 1978.527344 1059.746094 1976.261719 1060.816406 C 1973.996094 1061.890625 1971.703125 1062.90625 1969.386719 1063.863281 C 1967.070312 1064.824219 1964.734375 1065.726562 1962.375 1066.570312 C 1960.015625 1067.414062 1957.636719 1068.199219 1955.238281 1068.929688 C 1952.839844 1069.65625 1950.421875 1070.324219 1947.992188 1070.933594 C 1945.558594 1071.542969 1943.117188 1072.089844 1940.65625 1072.578125 C 1938.199219 1073.070312 1935.730469 1073.496094 1933.25 1073.863281 C 1930.769531 1074.234375 1928.285156 1074.539062 1925.789062 1074.785156 C 1923.296875 1075.03125 1920.796875 1075.214844 1918.292969 1075.339844 C 1915.789062 1075.460938 1913.285156 1075.523438 1910.777344 1075.523438 C 1908.273438 1075.523438 1905.765625 1075.460938 1903.261719 1075.339844 C 1900.761719 1075.214844 1898.261719 1075.03125 1895.765625 1074.785156 C 1893.273438 1074.539062 1890.785156 1074.234375 1888.304688 1073.863281 C 1885.828125 1073.496094 1883.359375 1073.070312 1880.898438 1072.578125 C 1878.441406 1072.089844 1875.996094 1071.542969 1873.566406 1070.933594 C 1871.132812 1070.324219 1868.71875 1069.65625 1866.320312 1068.929688 C 1863.921875 1068.199219 1861.542969 1067.414062 1859.183594 1066.570312 C 1856.824219 1065.726562 1854.484375 1064.824219 1852.167969 1063.863281 C 1849.851562 1062.90625 1847.5625 1061.890625 1845.296875 1060.816406 C 1843.03125 1059.746094 1840.792969 1058.621094 1838.582031 1057.4375 C 1836.371094 1056.257812 1834.191406 1055.023438 1832.042969 1053.734375 C 1829.890625 1052.445312 1827.773438 1051.105469 1825.691406 1049.710938 C 1823.605469 1048.320312 1821.558594 1046.875 1819.546875 1045.382812 C 1817.53125 1043.890625 1815.554688 1042.347656 1813.617188 1040.757812 C 1811.679688 1039.167969 1809.785156 1037.53125 1807.925781 1035.847656 C 1806.070312 1034.164062 1804.253906 1032.4375 1802.484375 1030.664062 C 1800.710938 1028.894531 1798.984375 1027.078125 1797.300781 1025.222656 C 1795.617188 1023.363281 1793.980469 1021.464844 1792.390625 1019.527344 C 1790.800781 1017.589844 1789.257812 1015.617188 1787.765625 1013.601562 C 1786.269531 1011.589844 1784.828125 1009.539062 1783.4375 1007.457031 C 1782.042969 1005.371094 1780.703125 1003.253906 1779.414062 1001.105469 C 1778.125 998.957031 1776.890625 996.777344 1775.710938 994.566406 C 1774.527344 992.355469 1773.402344 990.117188 1772.328125 987.851562 C 1771.257812 985.585938 1770.242188 983.292969 1769.28125 980.976562 C 1768.324219 978.664062 1767.421875 976.324219 1766.578125 973.964844 C 1765.734375 971.605469 1764.949219 969.226562 1764.21875 966.828125 C 1763.492188 964.429688 1762.824219 962.015625 1762.214844 959.582031 C 1761.605469 957.152344 1761.058594 954.707031 1760.566406 952.246094 C 1760.078125 949.789062 1759.648438 947.320312 1759.28125 944.839844 C 1758.914062 942.363281 1758.609375 939.875 1758.363281 937.382812 C 1758.117188 934.886719 1757.933594 932.386719 1757.808594 929.882812 C 1757.6875 927.378906 1757.625 924.875 1757.625 922.371094 C 1757.625 919.863281 1757.6875 917.359375 1757.808594 914.855469 C 1757.933594 912.351562 1758.117188 909.851562 1758.363281 907.359375 C 1758.609375 904.863281 1758.914062 902.375 1759.28125 899.898438 C 1759.648438 897.417969 1760.078125 894.949219 1760.566406 892.492188 C 1761.058594 890.03125 1761.605469 887.585938 1762.214844 885.15625 C 1762.824219 882.722656 1763.492188 880.308594 1764.21875 877.910156 C 1764.949219 875.511719 1765.734375 873.132812 1766.578125 870.773438 C 1767.421875 868.414062 1768.324219 866.074219 1769.28125 863.761719 C 1770.242188 861.445312 1771.257812 859.152344 1772.328125 856.886719 C 1773.402344 854.621094 1774.527344 852.382812 1775.710938 850.171875 C 1776.890625 847.960938 1778.125 845.78125 1779.414062 843.632812 C 1780.703125 841.484375 1782.042969 839.367188 1783.4375 837.28125 C 1784.828125 835.199219 1786.269531 833.148438 1787.765625 831.136719 C 1789.257812 829.121094 1790.800781 827.148438 1792.390625 825.210938 C 1793.980469 823.273438 1795.617188 821.375 1797.300781 819.515625 C 1798.984375 817.660156 1800.710938 815.84375 1802.484375 814.074219 C 1804.253906 812.300781 1806.070312 810.574219 1807.925781 808.890625 C 1809.785156 807.207031 1811.679688 805.570312 1813.617188 803.980469 C 1815.554688 802.390625 1817.53125 800.847656 1819.546875 799.355469 C 1821.558594 797.863281 1823.605469 796.417969 1825.691406 795.027344 C 1827.773438 793.632812 1829.890625 792.292969 1832.042969 791.003906 C 1834.191406 789.714844 1836.371094 788.480469 1838.582031 787.300781 C 1840.792969 786.117188 1843.03125 784.992188 1845.296875 783.921875 C 1847.5625 782.847656 1849.851562 781.832031 1852.167969 780.875 C 1854.484375 779.914062 1856.824219 779.011719 1859.183594 778.167969 C 1861.542969 777.324219 1863.921875 776.539062 1866.320312 775.808594 C 1868.71875 775.082031 1871.132812 774.414062 1873.566406 773.804688 C 1875.996094 773.195312 1878.441406 772.648438 1880.898438 772.160156 C 1883.359375 771.667969 1885.828125 771.242188 1888.304688 770.875 C 1890.785156 770.503906 1893.273438 770.199219 1895.765625 769.953125 C 1898.261719 769.707031 1900.761719 769.523438 1903.261719 769.398438 C 1905.765625 769.277344 1908.273438 769.214844 1910.777344 769.214844 C 1913.285156 769.214844 1915.789062 769.277344 1918.292969 769.398438 C 1920.796875 769.523438 1923.296875 769.707031 1925.789062 769.953125 C 1928.285156 770.199219 1930.769531 770.503906 1933.25 770.875 C 1935.730469 771.242188 1938.199219 771.667969 1940.65625 772.160156 C 1943.117188 772.648438 1945.558594 773.195312 1947.992188 773.804688 C 1950.421875 774.414062 1952.839844 775.082031 1955.238281 775.808594 C 1957.636719 776.539062 1960.015625 777.324219 1962.375 778.167969 C 1964.734375 779.011719 1967.070312 779.914062 1969.386719 780.875 C 1971.703125 781.832031 1973.996094 782.847656 1976.261719 783.921875 C 1978.527344 784.992188 1980.765625 786.117188 1982.976562 787.300781 C 1985.183594 788.480469 1987.367188 789.714844 1989.515625 791.003906 C 1991.664062 792.292969 1993.78125 793.632812 1995.867188 795.027344 C 1997.949219 796.417969 2000 797.863281 2002.011719 799.355469 C 2004.023438 800.847656 2006 802.390625 2007.9375 803.980469 C 2009.875 805.570312 2011.773438 807.207031 2013.628906 808.890625 C 2015.488281 810.574219 2017.300781 812.300781 2019.074219 814.074219 C 2020.847656 815.84375 2022.574219 817.660156 2024.257812 819.515625 C 2025.941406 821.375 2027.578125 823.273438 2029.167969 825.210938 C 2030.757812 827.148438 2032.300781 829.121094 2033.792969 831.136719 C 2035.285156 833.148438 2036.726562 835.199219 2038.121094 837.28125 C 2039.511719 839.367188 2040.855469 841.484375 2042.144531 843.632812 C 2043.429688 845.78125 2044.667969 847.960938 2045.847656 850.171875 C 2047.03125 852.382812 2048.15625 854.621094 2049.226562 856.886719 C 2050.300781 859.152344 2051.316406 861.445312 2052.273438 863.761719 C 2053.234375 866.074219 2054.136719 868.414062 2054.980469 870.773438 C 2055.824219 873.132812 2056.609375 875.511719 2057.335938 877.910156 C 2058.066406 880.308594 2058.734375 882.722656 2059.34375 885.15625 C 2059.953125 887.585938 2060.5 890.03125 2060.988281 892.492188 C 2061.476562 894.949219 2061.90625 897.417969 2062.273438 899.898438 C 2062.640625 902.375 2062.949219 904.863281 2063.195312 907.359375 C 2063.441406 909.851562 2063.625 912.351562 2063.746094 914.855469 C 2063.871094 917.359375 2063.933594 919.863281 2063.933594 922.371094 Z M 2063.933594 922.371094 " fill-opacity="1" fill-rule="nonzero"/></g></svg>