<svg xmlns="http://www.w3.org/2000/svg" xmlns:xlink="http://www.w3.org/1999/xlink" width="1920" zoomAndPan="magnify" viewBox="0 0 1440 809.999993" height="1080" preserveAspectRatio="xMidYMid meet" version="1.0"><defs><g/></defs><path fill="#ca5b32" d="M 154.269531 402.8125 L 154.269531 349.976562 L 107.988281 323.171875 L 107.988281 376.007812 Z M 169.695312 402.8125 L 215.976562 376.007812 L 215.976562 323.171875 L 169.695312 349.976562 Z M 161.980469 336.671875 L 207.683594 310.253906 L 161.980469 283.832031 L 116.28125 310.253906 Z M 100.273438 389.507812 C 97.832031 388.09375 95.9375 386.230469 94.585938 383.914062 C 93.238281 381.601562 92.5625 379.03125 92.5625 376.203125 L 92.5625 314.878906 C 92.5625 312.050781 93.238281 309.480469 94.585938 307.167969 C 95.9375 304.851562 97.832031 302.988281 100.273438 301.574219 L 154.269531 270.527344 C 156.710938 269.113281 159.28125 268.40625 161.980469 268.40625 C 164.683594 268.40625 167.253906 269.113281 169.695312 270.527344 L 223.691406 301.574219 C 226.132812 302.988281 228.027344 304.851562 229.378906 307.167969 C 230.726562 309.480469 231.402344 312.050781 231.402344 314.878906 L 231.402344 376.203125 C 231.402344 379.03125 230.726562 381.601562 229.378906 383.914062 C 228.027344 386.230469 226.132812 388.09375 223.691406 389.507812 L 169.695312 420.554688 C 167.253906 421.96875 164.683594 422.675781 161.980469 422.675781 C 159.28125 422.675781 156.710938 421.96875 154.269531 420.554688 Z M 161.980469 345.542969 Z M 161.980469 345.542969 " fill-opacity="1" fill-rule="nonzero"/><path fill="#ca5b32" d="M 84.847656 521.695312 L 84.847656 468.859375 L 38.566406 442.054688 L 38.566406 494.890625 Z M 100.273438 521.695312 L 146.554688 494.890625 L 146.554688 442.054688 L 100.273438 468.859375 Z M 92.5625 455.550781 L 138.261719 429.132812 L 92.5625 402.714844 L 46.859375 429.132812 Z M 30.851562 508.390625 C 28.410156 506.976562 26.515625 505.113281 25.164062 502.796875 C 23.816406 500.484375 23.140625 497.914062 23.140625 495.082031 L 23.140625 433.761719 C 23.140625 430.933594 23.816406 428.363281 25.164062 426.050781 C 26.515625 423.734375 28.410156 421.871094 30.851562 420.457031 L 84.847656 389.410156 C 87.289062 387.996094 89.863281 387.289062 92.5625 387.289062 C 95.261719 387.289062 97.832031 387.996094 100.273438 389.410156 L 154.269531 420.457031 C 156.710938 421.871094 158.605469 423.734375 159.957031 426.050781 C 161.308594 428.363281 161.980469 430.933594 161.980469 433.761719 L 161.980469 495.082031 C 161.980469 497.914062 161.308594 500.484375 159.957031 502.796875 C 158.605469 505.113281 156.710938 506.976562 154.269531 508.390625 L 100.273438 539.4375 C 97.832031 540.851562 95.261719 541.558594 92.5625 541.558594 C 89.863281 541.558594 87.289062 540.851562 84.847656 539.4375 Z M 92.5625 464.421875 Z M 92.5625 464.421875 " fill-opacity="1" fill-rule="nonzero"/><path fill="#ca5b32" d="M 223.660156 521.695312 L 223.660156 468.859375 L 177.378906 442.054688 L 177.378906 494.890625 Z M 239.085938 521.695312 L 285.367188 494.890625 L 285.367188 442.054688 L 239.085938 468.859375 Z M 231.375 455.550781 L 277.074219 429.132812 L 231.375 402.714844 L 185.671875 429.132812 Z M 169.667969 508.390625 C 167.222656 506.976562 165.328125 505.113281 163.976562 502.796875 C 162.628906 500.484375 161.953125 497.914062 161.953125 495.082031 L 161.953125 433.761719 C 161.953125 430.933594 162.628906 428.363281 163.976562 426.050781 C 165.328125 423.734375 167.222656 421.871094 169.667969 420.457031 L 223.660156 389.410156 C 226.101562 387.996094 228.671875 387.289062 231.375 387.289062 C 234.074219 387.289062 236.644531 387.996094 239.085938 389.410156 L 293.082031 420.457031 C 295.523438 421.871094 297.417969 423.734375 298.769531 426.050781 C 300.121094 428.363281 300.792969 430.933594 300.792969 433.761719 L 300.792969 495.082031 C 300.792969 497.914062 300.121094 500.484375 298.769531 502.796875 C 297.417969 505.113281 295.523438 506.976562 293.082031 508.390625 L 239.085938 539.4375 C 236.644531 540.851562 234.074219 541.558594 231.375 541.558594 C 228.671875 541.558594 226.101562 540.851562 223.660156 539.4375 Z M 231.375 464.421875 Z M 231.375 464.421875 " fill-opacity="1" fill-rule="nonzero"/><g fill="#ca5b32" fill-opacity="1"><g transform="translate(323.99999, 462.749997)"><g><path d="M 69.828125 -88.71875 C 69.222656 -87.675781 68.582031 -86.914062 67.90625 -86.4375 C 67.238281 -85.957031 66.40625 -85.71875 65.40625 -85.71875 C 64.351562 -85.71875 63.210938 -86.101562 61.984375 -86.875 C 60.765625 -87.65625 59.300781 -88.519531 57.59375 -89.46875 C 55.894531 -90.425781 53.90625 -91.289062 51.625 -92.0625 C 49.351562 -92.832031 46.671875 -93.21875 43.578125 -93.21875 C 40.773438 -93.21875 38.320312 -92.878906 36.21875 -92.203125 C 34.125 -91.535156 32.363281 -90.597656 30.9375 -89.390625 C 29.507812 -88.191406 28.445312 -86.753906 27.75 -85.078125 C 27.050781 -83.410156 26.703125 -81.578125 26.703125 -79.578125 C 26.703125 -77.023438 27.410156 -74.898438 28.828125 -73.203125 C 30.253906 -71.503906 32.144531 -70.050781 34.5 -68.84375 C 36.851562 -67.644531 39.53125 -66.570312 42.53125 -65.625 C 45.53125 -64.675781 48.601562 -63.660156 51.75 -62.578125 C 54.894531 -61.503906 57.96875 -60.253906 60.96875 -58.828125 C 63.96875 -57.410156 66.644531 -55.613281 69 -53.4375 C 71.351562 -51.257812 73.238281 -48.59375 74.65625 -45.4375 C 76.082031 -42.289062 76.796875 -38.46875 76.796875 -33.96875 C 76.796875 -29.070312 75.957031 -24.484375 74.28125 -20.203125 C 72.613281 -15.929688 70.164062 -12.207031 66.9375 -9.03125 C 63.707031 -5.863281 59.769531 -3.363281 55.125 -1.53125 C 50.476562 0.289062 45.15625 1.203125 39.15625 1.203125 C 35.695312 1.203125 32.289062 0.863281 28.9375 0.1875 C 25.59375 -0.488281 22.382812 -1.453125 19.3125 -2.703125 C 16.238281 -3.953125 13.347656 -5.453125 10.640625 -7.203125 C 7.941406 -8.953125 5.546875 -10.898438 3.453125 -13.046875 L 9.375 -22.71875 C 9.875 -23.425781 10.523438 -24.015625 11.328125 -24.484375 C 12.128906 -24.960938 12.976562 -25.203125 13.875 -25.203125 C 15.125 -25.203125 16.472656 -24.6875 17.921875 -23.65625 C 19.367188 -22.632812 21.09375 -21.5 23.09375 -20.25 C 25.09375 -19 27.429688 -17.859375 30.109375 -16.828125 C 32.785156 -15.804688 36 -15.296875 39.75 -15.296875 C 45.5 -15.296875 49.945312 -16.65625 53.09375 -19.375 C 56.25 -22.101562 57.828125 -26.019531 57.828125 -31.125 C 57.828125 -33.976562 57.113281 -36.300781 55.6875 -38.09375 C 54.257812 -39.894531 52.367188 -41.40625 50.015625 -42.625 C 47.671875 -43.851562 45 -44.894531 42 -45.75 C 39 -46.601562 35.945312 -47.53125 32.84375 -48.53125 C 29.75 -49.53125 26.703125 -50.726562 23.703125 -52.125 C 20.703125 -53.519531 18.023438 -55.34375 15.671875 -57.59375 C 13.328125 -59.84375 11.441406 -62.65625 10.015625 -66.03125 C 8.585938 -69.40625 7.875 -73.570312 7.875 -78.53125 C 7.875 -82.476562 8.660156 -86.328125 10.234375 -90.078125 C 11.804688 -93.828125 14.09375 -97.148438 17.09375 -100.046875 C 20.09375 -102.953125 23.789062 -105.28125 28.1875 -107.03125 C 32.59375 -108.78125 37.644531 -109.65625 43.34375 -109.65625 C 49.75 -109.65625 55.648438 -108.65625 61.046875 -106.65625 C 66.453125 -104.65625 71.050781 -101.851562 74.84375 -98.25 Z M 69.828125 -88.71875 "/></g></g></g><g fill="#ca5b32" fill-opacity="1"><g transform="translate(406.274903, 462.749997)"><g><path d="M 34.796875 1.203125 C 28.097656 1.203125 22.960938 -0.679688 19.390625 -4.453125 C 15.816406 -8.234375 14.03125 -13.445312 14.03125 -20.09375 L 14.03125 -63.078125 L 6.15625 -63.078125 C 5.15625 -63.078125 4.300781 -63.398438 3.59375 -64.046875 C 2.894531 -64.703125 2.546875 -65.675781 2.546875 -66.96875 L 2.546875 -74.328125 L 14.921875 -76.34375 L 18.828125 -97.34375 C 19.078125 -98.34375 19.550781 -99.117188 20.25 -99.671875 C 20.945312 -100.222656 21.847656 -100.5 22.953125 -100.5 L 32.546875 -100.5 L 32.546875 -76.28125 L 53.09375 -76.28125 L 53.09375 -63.078125 L 32.546875 -63.078125 L 32.546875 -21.375 C 32.546875 -18.976562 33.132812 -17.101562 34.3125 -15.75 C 35.488281 -14.394531 37.101562 -13.71875 39.15625 -13.71875 C 40.300781 -13.71875 41.257812 -13.851562 42.03125 -14.125 C 42.8125 -14.40625 43.488281 -14.695312 44.0625 -15 C 44.632812 -15.300781 45.144531 -15.585938 45.59375 -15.859375 C 46.050781 -16.140625 46.503906 -16.28125 46.953125 -16.28125 C 47.503906 -16.28125 47.953125 -16.140625 48.296875 -15.859375 C 48.648438 -15.585938 49.023438 -15.175781 49.421875 -14.625 L 54.96875 -5.625 C 52.269531 -3.375 49.171875 -1.671875 45.671875 -0.515625 C 42.171875 0.628906 38.546875 1.203125 34.796875 1.203125 Z M 34.796875 1.203125 "/></g></g></g><g fill="#ca5b32" fill-opacity="1"><g transform="translate(462.07485, 462.749997)"><g><path d="M 27.671875 -68.703125 C 30.671875 -71.503906 33.96875 -73.78125 37.5625 -75.53125 C 41.164062 -77.28125 45.394531 -78.15625 50.25 -78.15625 C 54.445312 -78.15625 58.171875 -77.441406 61.421875 -76.015625 C 64.671875 -74.585938 67.382812 -72.585938 69.5625 -70.015625 C 71.738281 -67.441406 73.390625 -64.363281 74.515625 -60.78125 C 75.640625 -57.207031 76.203125 -53.269531 76.203125 -48.96875 L 76.203125 0 L 57.671875 0 L 57.671875 -48.96875 C 57.671875 -53.675781 56.59375 -57.316406 54.4375 -59.890625 C 52.289062 -62.460938 49.019531 -63.75 44.625 -63.75 C 41.425781 -63.75 38.425781 -63.023438 35.625 -61.578125 C 32.820312 -60.128906 30.171875 -58.15625 27.671875 -55.65625 L 27.671875 0 L 9.15625 0 L 9.15625 -111.453125 L 27.671875 -111.453125 Z M 27.671875 -68.703125 "/></g></g></g><g fill="#ca5b32" fill-opacity="1"><g transform="translate(546.674768, 462.749997)"><g><path d="M 49.796875 -32.84375 C 44.453125 -32.59375 39.953125 -32.128906 36.296875 -31.453125 C 32.648438 -30.785156 29.722656 -29.925781 27.515625 -28.875 C 25.316406 -27.820312 23.742188 -26.59375 22.796875 -25.1875 C 21.847656 -23.789062 21.375 -22.269531 21.375 -20.625 C 21.375 -17.375 22.335938 -15.046875 24.265625 -13.640625 C 26.191406 -12.242188 28.703125 -11.546875 31.796875 -11.546875 C 35.597656 -11.546875 38.882812 -12.234375 41.65625 -13.609375 C 44.4375 -14.984375 47.148438 -17.070312 49.796875 -19.875 Z M 7.34375 -66.21875 C 16.195312 -74.320312 26.847656 -78.375 39.296875 -78.375 C 43.796875 -78.375 47.820312 -77.632812 51.375 -76.15625 C 54.925781 -74.6875 57.925781 -72.640625 60.375 -70.015625 C 62.820312 -67.390625 64.679688 -64.25 65.953125 -60.59375 C 67.234375 -56.945312 67.875 -52.945312 67.875 -48.59375 L 67.875 0 L 59.46875 0 C 57.71875 0 56.367188 -0.257812 55.421875 -0.78125 C 54.472656 -1.3125 53.722656 -2.375 53.171875 -3.96875 L 51.53125 -9.53125 C 49.570312 -7.78125 47.664062 -6.238281 45.8125 -4.90625 C 43.96875 -3.582031 42.046875 -2.46875 40.046875 -1.5625 C 38.046875 -0.664062 35.90625 0.015625 33.625 0.484375 C 31.351562 0.960938 28.84375 1.203125 26.09375 1.203125 C 22.84375 1.203125 19.84375 0.765625 17.09375 -0.109375 C 14.34375 -0.984375 11.96875 -2.296875 9.96875 -4.046875 C 7.96875 -5.796875 6.414062 -7.96875 5.3125 -10.5625 C 4.21875 -13.164062 3.671875 -16.195312 3.671875 -19.65625 C 3.671875 -21.601562 3.992188 -23.535156 4.640625 -25.453125 C 5.296875 -27.378906 6.359375 -29.21875 7.828125 -30.96875 C 9.304688 -32.71875 11.21875 -34.367188 13.5625 -35.921875 C 15.914062 -37.472656 18.804688 -38.820312 22.234375 -39.96875 C 25.660156 -41.125 29.648438 -42.0625 34.203125 -42.78125 C 38.753906 -43.507812 43.953125 -43.945312 49.796875 -44.09375 L 49.796875 -48.59375 C 49.796875 -53.75 48.695312 -57.5625 46.5 -60.03125 C 44.300781 -62.507812 41.125 -63.75 36.96875 -63.75 C 33.96875 -63.75 31.476562 -63.398438 29.5 -62.703125 C 27.53125 -62.003906 25.796875 -61.21875 24.296875 -60.34375 C 22.796875 -59.46875 21.429688 -58.675781 20.203125 -57.96875 C 18.984375 -57.269531 17.625 -56.921875 16.125 -56.921875 C 14.820312 -56.921875 13.71875 -57.257812 12.8125 -57.9375 C 11.914062 -58.613281 11.195312 -59.398438 10.65625 -60.296875 Z M 7.34375 -66.21875 "/></g></g></g><g fill="#ca5b32" fill-opacity="1"><g transform="translate(622.799695, 462.749997)"><g><path d="M 27.90625 -111.453125 L 27.90625 0 L 9.375 0 L 9.375 -111.453125 Z M 27.90625 -111.453125 "/></g></g></g><g fill="#ca5b32" fill-opacity="1"><g transform="translate(660.074657, 462.749997)"><g><path d="M 28.34375 -76.953125 L 28.34375 0 L 9.75 0 L 9.75 -76.953125 Z M 30.90625 -99.375 C 30.90625 -97.769531 30.578125 -96.269531 29.921875 -94.875 C 29.273438 -93.476562 28.410156 -92.253906 27.328125 -91.203125 C 26.253906 -90.148438 24.992188 -89.3125 23.546875 -88.6875 C 22.097656 -88.0625 20.550781 -87.75 18.90625 -87.75 C 17.300781 -87.75 15.785156 -88.0625 14.359375 -88.6875 C 12.929688 -89.3125 11.691406 -90.148438 10.640625 -91.203125 C 9.597656 -92.253906 8.765625 -93.476562 8.140625 -94.875 C 7.515625 -96.269531 7.203125 -97.769531 7.203125 -99.375 C 7.203125 -101.019531 7.515625 -102.566406 8.140625 -104.015625 C 8.765625 -105.472656 9.597656 -106.722656 10.640625 -107.765625 C 11.691406 -108.816406 12.929688 -109.65625 14.359375 -110.28125 C 15.785156 -110.90625 17.300781 -111.21875 18.90625 -111.21875 C 20.550781 -111.21875 22.097656 -110.90625 23.546875 -110.28125 C 24.992188 -109.65625 26.253906 -108.816406 27.328125 -107.765625 C 28.410156 -106.722656 29.273438 -105.472656 29.921875 -104.015625 C 30.578125 -102.566406 30.90625 -101.019531 30.90625 -99.375 Z M 30.90625 -99.375 "/></g></g></g><g fill="#ca5b32" fill-opacity="1"><g transform="translate(698.174622, 462.749997)"><g/></g></g><g fill="#ca5b32" fill-opacity="1"><g transform="translate(734.624603, 462.749997)"><g><path d="M 86.546875 -25.578125 C 87.648438 -25.578125 88.625 -25.148438 89.46875 -24.296875 L 97.421875 -15.671875 C 93.023438 -10.222656 87.613281 -6.046875 81.1875 -3.140625 C 74.757812 -0.242188 67.046875 1.203125 58.046875 1.203125 C 49.992188 1.203125 42.753906 -0.171875 36.328125 -2.921875 C 29.910156 -5.671875 24.425781 -9.492188 19.875 -14.390625 C 15.320312 -19.296875 11.832031 -25.148438 9.40625 -31.953125 C 6.988281 -38.753906 5.78125 -46.175781 5.78125 -54.21875 C 5.78125 -62.375 7.078125 -69.835938 9.671875 -76.609375 C 12.273438 -83.390625 15.9375 -89.226562 20.65625 -94.125 C 25.382812 -99.019531 31.023438 -102.832031 37.578125 -105.5625 C 44.128906 -108.289062 51.378906 -109.65625 59.328125 -109.65625 C 67.222656 -109.65625 74.234375 -108.351562 80.359375 -105.75 C 86.484375 -103.144531 91.695312 -99.742188 96 -95.546875 L 89.25 -86.171875 C 88.851562 -85.578125 88.34375 -85.050781 87.71875 -84.59375 C 87.09375 -84.144531 86.226562 -83.921875 85.125 -83.921875 C 84.375 -83.921875 83.597656 -84.132812 82.796875 -84.5625 C 81.992188 -84.988281 81.117188 -85.515625 80.171875 -86.140625 C 79.222656 -86.765625 78.125 -87.453125 76.875 -88.203125 C 75.625 -88.953125 74.171875 -89.640625 72.515625 -90.265625 C 70.867188 -90.890625 68.957031 -91.410156 66.78125 -91.828125 C 64.613281 -92.253906 62.101562 -92.46875 59.25 -92.46875 C 54.394531 -92.46875 49.957031 -91.601562 45.9375 -89.875 C 41.914062 -88.15625 38.453125 -85.65625 35.546875 -82.375 C 32.648438 -79.101562 30.398438 -75.101562 28.796875 -70.375 C 27.203125 -65.65625 26.40625 -60.269531 26.40625 -54.21875 C 26.40625 -48.125 27.265625 -42.703125 28.984375 -37.953125 C 30.710938 -33.203125 33.050781 -29.203125 36 -25.953125 C 38.945312 -22.703125 42.421875 -20.210938 46.421875 -18.484375 C 50.421875 -16.765625 54.722656 -15.90625 59.328125 -15.90625 C 62.078125 -15.90625 64.5625 -16.050781 66.78125 -16.34375 C 69.007812 -16.644531 71.0625 -17.117188 72.9375 -17.765625 C 74.8125 -18.421875 76.585938 -19.257812 78.265625 -20.28125 C 79.941406 -21.3125 81.601562 -22.578125 83.25 -24.078125 C 83.75 -24.523438 84.273438 -24.882812 84.828125 -25.15625 C 85.378906 -25.4375 85.953125 -25.578125 86.546875 -25.578125 Z M 86.546875 -25.578125 "/></g></g></g><g fill="#ca5b32" fill-opacity="1"><g transform="translate(833.849497, 462.749997)"><g><path d="M 44.84375 -56.84375 C 48.644531 -56.84375 51.957031 -57.316406 54.78125 -58.265625 C 57.613281 -59.222656 59.941406 -60.535156 61.765625 -62.203125 C 63.585938 -63.878906 64.945312 -65.867188 65.84375 -68.171875 C 66.75 -70.472656 67.203125 -73 67.203125 -75.75 C 67.203125 -81.25 65.390625 -85.472656 61.765625 -88.421875 C 58.140625 -91.367188 52.601562 -92.84375 45.15625 -92.84375 L 32.25 -92.84375 L 32.25 -56.84375 Z M 96.75 0 L 78.53125 0 C 75.070312 0 72.570312 -1.347656 71.03125 -4.046875 L 48.21875 -38.78125 C 47.375 -40.070312 46.4375 -40.992188 45.40625 -41.546875 C 44.382812 -42.097656 42.875 -42.375 40.875 -42.375 L 32.25 -42.375 L 32.25 0 L 12.078125 0 L 12.078125 -108.453125 L 45.15625 -108.453125 C 52.5 -108.453125 58.804688 -107.6875 64.078125 -106.15625 C 69.359375 -104.632812 73.6875 -102.5 77.0625 -99.75 C 80.4375 -97 82.921875 -93.710938 84.515625 -89.890625 C 86.117188 -86.066406 86.921875 -81.851562 86.921875 -77.25 C 86.921875 -73.601562 86.382812 -70.15625 85.3125 -66.90625 C 84.238281 -63.65625 82.6875 -60.703125 80.65625 -58.046875 C 78.632812 -55.398438 76.132812 -53.078125 73.15625 -51.078125 C 70.1875 -49.078125 66.800781 -47.5 63 -46.34375 C 64.300781 -45.59375 65.5 -44.707031 66.59375 -43.6875 C 67.695312 -42.664062 68.695312 -41.453125 69.59375 -40.046875 Z M 96.75 0 "/></g></g></g><g fill="#ca5b32" fill-opacity="1"><g transform="translate(930.299428, 462.749997)"><g><path d="M 55.71875 -16.28125 C 59.625 -16.28125 63.113281 -16.925781 66.1875 -18.21875 C 69.257812 -19.519531 71.84375 -21.34375 73.9375 -23.6875 C 76.039062 -26.039062 77.65625 -28.894531 78.78125 -32.25 C 79.90625 -35.601562 80.46875 -39.351562 80.46875 -43.5 L 80.46875 -108.453125 L 100.65625 -108.453125 L 100.65625 -43.5 C 100.65625 -37.050781 99.613281 -31.085938 97.53125 -25.609375 C 95.457031 -20.140625 92.484375 -15.414062 88.609375 -11.4375 C 84.734375 -7.457031 80.019531 -4.351562 74.46875 -2.125 C 68.925781 0.09375 62.675781 1.203125 55.71875 1.203125 C 48.71875 1.203125 42.441406 0.09375 36.890625 -2.125 C 31.347656 -4.351562 26.640625 -7.457031 22.765625 -11.4375 C 18.890625 -15.414062 15.910156 -20.140625 13.828125 -25.609375 C 11.753906 -31.085938 10.71875 -37.050781 10.71875 -43.5 L 10.71875 -108.453125 L 30.90625 -108.453125 L 30.90625 -43.578125 C 30.90625 -39.421875 31.46875 -35.664062 32.59375 -32.3125 C 33.71875 -28.96875 35.34375 -26.109375 37.46875 -23.734375 C 39.59375 -21.359375 42.191406 -19.519531 45.265625 -18.21875 C 48.335938 -16.925781 51.820312 -16.28125 55.71875 -16.28125 Z M 55.71875 -16.28125 "/></g></g></g><g fill="#ca5b32" fill-opacity="1"><g transform="translate(1041.674331, 462.749997)"><g><path d="M 108.375 -54.21875 C 108.375 -46.269531 107.046875 -38.96875 104.390625 -32.3125 C 101.742188 -25.664062 98.019531 -19.941406 93.21875 -15.140625 C 88.425781 -10.347656 82.65625 -6.625 75.90625 -3.96875 C 69.15625 -1.320312 61.65625 0 53.40625 0 L 12.078125 0 L 12.078125 -108.453125 L 53.40625 -108.453125 C 61.65625 -108.453125 69.15625 -107.113281 75.90625 -104.4375 C 82.65625 -101.757812 88.425781 -98.03125 93.21875 -93.25 C 98.019531 -88.476562 101.742188 -82.769531 104.390625 -76.125 C 107.046875 -69.476562 108.375 -62.175781 108.375 -54.21875 Z M 87.671875 -54.21875 C 87.671875 -60.175781 86.882812 -65.515625 85.3125 -70.234375 C 83.738281 -74.960938 81.460938 -78.960938 78.484375 -82.234375 C 75.515625 -85.515625 71.914062 -88.03125 67.6875 -89.78125 C 63.457031 -91.53125 58.695312 -92.40625 53.40625 -92.40625 L 32.328125 -92.40625 L 32.328125 -16.046875 L 53.40625 -16.046875 C 58.695312 -16.046875 63.457031 -16.921875 67.6875 -18.671875 C 71.914062 -20.421875 75.515625 -22.929688 78.484375 -26.203125 C 81.460938 -29.484375 83.738281 -33.484375 85.3125 -38.203125 C 86.882812 -42.929688 87.671875 -48.269531 87.671875 -54.21875 Z M 87.671875 -54.21875 "/></g></g></g></svg>