<?xml version="1.0" encoding="UTF-8" standalone="no"?>
<!DOCTYPE svg PUBLIC "-//W3C//DTD SVG 20010904//EN"
              "http://www.w3.org/TR/2001/REC-SVG-20010904/DTD/svg10.dtd">

<svg xmlns="http://www.w3.org/2000/svg"
     width="34.7222in" height="34.7222in"
     viewBox="0 0 3125 3125">
  <path id="Selection"
        fill="#CA5B32" stroke="black" stroke-width="1"
        d="M 1465.00,1492.00
           C 1465.00,1492.00 1465.00,773.00 1465.00,773.00
             1465.00,770.52 1465.20,767.31 1463.98,765.10
             1462.34,762.14 1456.02,758.68 1453.00,756.81
             1453.00,756.81 1430.00,741.57 1430.00,741.57
             1396.79,717.83 1366.57,689.84 1341.00,658.00
             1292.30,597.37 1259.69,524.21 1249.28,447.00
             1249.28,447.00 1246.00,411.00 1246.00,411.00
             1246.00,411.00 1246.00,368.00 1246.00,368.00
             1246.00,368.00 1246.91,358.00 1246.91,358.00
             1248.21,339.08 1250.84,320.57 1254.79,302.00
             1274.27,210.30 1320.68,132.83 1390.00,69.93
             1404.30,56.95 1421.91,43.40 1438.00,32.67
             1459.09,18.60 1471.17,10.60 1497.00,7.84
             1501.69,7.33 1502.94,6.90 1508.00,7.01
             1515.84,7.19 1525.45,9.12 1533.00,11.29
             1576.21,23.71 1604.93,60.90 1605.00,106.00
             1605.00,106.00 1605.00,308.00 1605.00,308.00
             1605.01,310.86 1604.69,314.26 1606.60,316.61
             1608.46,318.90 1614.14,320.88 1617.00,322.26
             1617.00,322.26 1642.00,334.25 1642.00,334.25
             1642.00,334.25 1682.00,353.25 1682.00,353.25
             1685.52,355.00 1698.87,361.73 1702.00,361.73
             1705.16,361.73 1718.41,355.00 1722.00,353.26
             1722.00,353.26 1760.00,335.76 1760.00,335.76
             1760.00,335.76 1788.00,322.76 1788.00,322.76
             1790.93,321.33 1797.58,318.85 1799.40,316.61
             1801.31,314.26 1800.99,310.86 1801.00,308.00
             1801.00,308.00 1801.00,99.00 1801.00,99.00
             1801.05,64.79 1818.46,29.47 1849.00,12.51
             1866.62,2.73 1886.17,-0.23 1906.00,0.00
             1931.46,0.30 1948.34,11.02 1969.00,24.31
             1988.76,37.01 2007.19,50.53 2025.00,65.87
             2097.34,128.17 2148.58,214.79 2165.58,309.00
             2168.04,322.66 2171.94,348.64 2172.00,362.00
             2172.00,362.00 2173.00,382.00 2173.00,382.00
             2173.00,382.00 2172.00,414.00 2172.00,414.00
             2172.00,414.00 2171.09,424.00 2171.09,424.00
             2169.49,445.89 2165.70,467.71 2160.37,489.00
             2142.82,559.22 2108.37,622.34 2059.83,676.00
             2036.39,701.91 2009.42,723.99 1981.00,744.14
             1981.00,744.14 1963.00,755.80 1963.00,755.80
             1960.49,757.32 1955.49,759.91 1954.02,762.33
             1952.78,764.38 1953.00,767.65 1953.00,770.00
             1953.00,770.00 1953.00,1492.00 1953.00,1492.00
             1953.00,1492.00 2204.00,1492.00 2204.00,1492.00
             2204.00,1492.00 2214.31,1462.00 2214.31,1462.00
             2214.31,1462.00 2236.58,1402.00 2236.58,1402.00
             2236.58,1402.00 2272.58,1305.00 2272.58,1305.00
             2272.58,1305.00 2285.58,1270.00 2285.58,1270.00
             2285.58,1270.00 2291.00,1256.00 2291.00,1256.00
             2243.50,1235.83 2210.83,1196.66 2197.73,1147.00
             2192.45,1126.97 2191.97,1114.35 2192.00,1094.00
             2192.04,1069.33 2200.78,1046.54 2209.80,1024.00
             2209.80,1024.00 2225.80,983.00 2225.80,983.00
             2232.63,965.92 2247.19,925.24 2255.70,912.00
             2268.78,891.66 2289.72,877.02 2313.00,870.88
             2326.89,867.22 2335.88,867.84 2350.00,868.00
             2359.96,868.12 2366.52,871.32 2370.00,871.80
             2372.00,872.07 2375.61,871.75 2375.66,868.99
             2375.71,866.74 2372.64,865.53 2370.99,864.71
             2364.54,861.47 2362.05,860.22 2356.00,855.96
             2341.86,846.03 2329.25,830.95 2322.43,815.00
             2314.77,797.11 2313.97,787.98 2314.00,769.00
             2314.03,751.67 2320.90,736.75 2327.20,721.00
             2327.20,721.00 2348.40,667.00 2348.40,667.00
             2348.40,667.00 2465.00,372.00 2465.00,372.00
             2465.00,372.00 2497.80,289.00 2497.80,289.00
             2509.30,260.26 2515.38,242.24 2533.72,216.00
             2569.16,165.28 2618.07,131.54 2678.00,116.63
             2689.98,113.65 2710.83,110.15 2723.00,110.00
             2744.33,109.75 2755.68,109.57 2777.00,113.42
             2813.98,120.11 2848.92,135.36 2884.00,148.32
             2884.00,148.32 2930.00,165.58 2930.00,165.58
             2959.20,176.59 2980.09,183.36 3007.00,200.69
             3062.49,236.43 3102.79,294.24 3116.00,359.00
             3117.79,367.80 3119.30,377.05 3120.00,386.00
             3120.00,386.00 3120.00,394.00 3120.00,394.00
             3120.00,394.00 3121.00,404.00 3121.00,404.00
             3121.00,404.00 3121.00,408.00 3121.00,408.00
             3121.00,408.00 3119.96,418.00 3119.96,418.00
             3119.96,418.00 3119.96,427.00 3119.96,427.00
             3118.42,441.82 3115.66,456.68 3111.57,471.00
             3111.57,471.00 3087.42,535.00 3087.42,535.00
             3087.42,535.00 3056.20,614.00 3056.20,614.00
             3056.20,614.00 3015.60,717.00 3015.60,717.00
             3015.60,717.00 2949.20,885.00 2949.20,885.00
             2949.20,885.00 2926.00,944.00 2926.00,944.00
             2926.00,944.00 2914.69,972.00 2914.69,972.00
             2900.07,1003.93 2867.01,1028.94 2831.00,1029.00
             2821.74,1029.01 2816.27,1029.45 2807.00,1027.55
             2807.00,1027.55 2791.00,1022.61 2791.00,1022.61
             2788.66,1022.05 2780.92,1022.26 2783.17,1026.61
             2784.24,1028.70 2791.42,1030.13 2794.00,1031.32
             2800.30,1034.24 2808.68,1039.96 2814.00,1044.44
             2837.64,1064.35 2850.35,1093.37 2850.00,1124.00
             2849.73,1147.11 2832.51,1182.38 2824.05,1205.00
             2824.05,1205.00 2806.42,1250.00 2806.42,1250.00
             2799.62,1267.90 2793.05,1286.03 2782.26,1302.00
             2753.81,1344.08 2708.38,1370.03 2658.00,1374.94
             2658.00,1374.94 2649.00,1374.94 2649.00,1374.94
             2649.00,1374.94 2636.00,1375.99 2636.00,1375.99
             2636.00,1375.99 2627.00,1375.09 2627.00,1375.09
             2619.23,1374.56 2617.37,1375.56 2609.00,1373.00
             2609.00,1373.00 2577.31,1460.00 2577.31,1460.00
             2577.31,1460.00 2566.00,1492.00 2566.00,1492.00
             2586.85,1492.00 2619.80,1490.07 2639.00,1494.89
             2671.24,1502.99 2696.45,1528.20 2705.42,1560.00
             2707.23,1566.42 2708.92,1574.34 2709.00,1581.00
             2709.31,1607.92 2705.73,1615.58 2699.37,1641.00
             2699.37,1641.00 2685.87,1695.00 2685.87,1695.00
             2685.87,1695.00 2666.37,1773.00 2666.37,1773.00
             2666.37,1773.00 2654.40,1817.00 2654.40,1817.00
             2648.93,1830.50 2641.44,1842.76 2631.00,1852.99
             2631.00,1852.99 2614.85,1866.32 2614.85,1866.32
             2613.77,1867.84 2613.47,1869.21 2613.17,1871.00
             2613.17,1871.00 2607.85,1914.00 2607.85,1914.00
             2607.85,1914.00 2599.85,1977.00 2599.85,1977.00
             2599.85,1977.00 2576.85,2158.00 2576.85,2158.00
             2576.85,2158.00 2568.15,2225.00 2568.15,2225.00
             2568.15,2225.00 2545.28,2405.00 2545.28,2405.00
             2545.28,2405.00 2501.72,2749.00 2501.72,2749.00
             2501.72,2749.00 2476.15,2949.00 2476.15,2949.00
             2476.15,2949.00 2468.28,3011.00 2468.28,3011.00
             2466.13,3027.48 2465.56,3041.14 2459.58,3057.00
             2444.48,3096.99 2407.18,3120.93 2365.00,3121.00
             2365.00,3121.00 1562.00,3121.00 1562.00,3121.00
             1562.00,3121.00 760.00,3121.00 760.00,3121.00
             715.44,3120.93 674.80,3091.61 663.15,3048.00
             663.15,3048.00 654.85,2990.00 654.85,2990.00
             654.85,2990.00 642.85,2896.00 642.85,2896.00
             642.85,2896.00 616.85,2691.00 616.85,2691.00
             616.85,2691.00 609.95,2637.00 609.95,2637.00
             609.95,2637.00 599.28,2554.00 599.28,2554.00
             599.28,2554.00 584.28,2436.00 584.28,2436.00
             584.28,2436.00 546.28,2137.00 546.28,2137.00
             546.28,2137.00 523.28,1956.00 523.28,1956.00
             523.28,1956.00 515.28,1893.00 515.28,1893.00
             515.28,1893.00 512.37,1870.01 512.37,1870.01
             510.86,1863.34 502.88,1860.18 498.00,1855.83
             489.29,1848.05 483.86,1841.00 478.01,1831.00
             470.42,1818.02 467.22,1804.38 463.63,1790.00
             463.63,1790.00 452.87,1747.00 452.87,1747.00
             452.87,1747.00 430.13,1656.00 430.13,1656.00
             424.42,1633.16 415.73,1606.33 416.00,1583.00
             416.19,1567.03 421.90,1549.41 430.44,1536.00
             434.69,1529.31 440.10,1523.44 446.00,1518.17
             452.50,1512.37 463.09,1505.53 471.00,1501.78
             482.92,1496.14 496.75,1492.02 510.00,1492.00
             510.00,1492.00 731.00,1492.00 731.00,1492.00
             731.00,1492.00 701.95,1414.00 701.95,1414.00
             701.95,1414.00 646.42,1265.00 646.42,1265.00
             646.42,1265.00 624.05,1205.00 624.05,1205.00
             624.05,1205.00 617.81,1188.00 617.81,1188.00
             617.09,1186.11 615.79,1181.92 614.30,1180.69
             611.53,1178.41 605.92,1181.84 603.00,1182.94
             595.33,1185.82 583.19,1187.96 575.00,1188.00
             549.15,1188.12 528.72,1179.75 509.00,1163.25
             500.55,1156.17 494.03,1147.33 486.87,1139.00
             486.87,1139.00 444.58,1089.00 444.58,1089.00
             444.58,1089.00 427.59,1069.00 427.59,1069.00
             425.62,1066.65 421.72,1061.32 418.96,1060.35
             416.72,1059.56 413.24,1060.77 411.00,1061.42
             411.00,1061.42 393.00,1067.42 393.00,1067.42
             367.54,1077.03 344.34,1090.60 322.00,1106.02
             283.26,1132.77 245.19,1170.77 215.25,1207.00
             215.25,1207.00 194.42,1234.00 194.42,1234.00
             178.54,1256.00 172.12,1267.32 147.00,1281.14
             103.26,1305.18 43.22,1290.23 17.45,1247.00
             1.81,1220.77 2.66,1203.05 3.00,1174.00
             3.00,1174.00 3.96,1163.00 3.96,1163.00
             3.96,1163.00 9.87,1103.00 9.87,1103.00
             30.55,954.43 101.73,817.93 231.00,736.05
             250.21,723.89 271.86,712.57 293.00,704.20
             293.00,704.20 317.00,695.58 317.00,695.58
             317.00,695.58 358.00,679.58 358.00,679.58
             358.00,679.58 535.00,610.80 535.00,610.80
             535.00,610.80 695.00,548.58 695.00,548.58
             695.00,548.58 737.00,532.19 737.00,532.19
             743.49,529.67 751.51,525.77 758.00,524.24
             770.08,521.37 773.96,521.98 786.00,522.00
             801.23,522.02 813.23,527.49 827.00,533.00
             828.49,526.68 831.71,520.57 835.01,515.00
             855.27,480.82 883.78,474.59 918.00,461.58
             918.00,461.58 961.00,445.19 961.00,445.19
             981.25,437.34 1003.96,427.26 1026.00,427.00
             1026.00,427.00 1048.00,427.00 1048.00,427.00
             1060.25,427.02 1073.42,430.14 1085.00,434.00
             1116.30,444.44 1143.29,465.33 1161.31,493.00
             1173.29,511.41 1177.89,527.03 1185.42,547.00
             1185.42,547.00 1214.42,625.00 1214.42,625.00
             1214.42,625.00 1243.05,702.00 1243.05,702.00
             1243.05,702.00 1263.05,756.00 1263.05,756.00
             1269.54,773.73 1274.33,783.74 1277.57,803.00
             1282.25,830.93 1279.25,859.61 1268.80,886.00
             1256.42,917.23 1234.14,942.89 1205.00,959.57
             1190.31,967.98 1142.46,985.46 1124.00,992.42
             1124.00,992.42 1076.00,1010.34 1076.00,1010.34
             1071.74,1011.29 1067.36,1011.95 1063.00,1012.00
             1037.33,1012.30 1022.16,1010.47 1000.00,996.00
             997.31,1007.49 988.63,1021.26 980.83,1030.00
             977.63,1033.58 967.91,1041.42 967.92,1046.00
             967.93,1047.93 970.75,1054.81 971.58,1057.00
             971.58,1057.00 980.58,1081.00 980.58,1081.00
             980.58,1081.00 1010.58,1161.00 1010.58,1161.00
             1010.58,1161.00 1093.42,1382.00 1093.42,1382.00
             1093.42,1382.00 1120.42,1454.00 1120.42,1454.00
             1120.42,1454.00 1134.00,1492.00 1134.00,1492.00
             1134.00,1492.00 1465.00,1492.00 1465.00,1492.00 Z
           M 1903.00,99.00
           C 1901.14,103.69 1902.00,119.10 1902.00,125.00
             1902.00,125.00 1902.00,180.00 1902.00,180.00
             1902.00,180.00 1902.00,370.00 1902.00,370.00
             1902.00,372.27 1902.22,375.66 1900.98,377.61
             1899.09,380.57 1886.71,385.80 1883.00,387.42
             1883.00,387.42 1855.00,400.69 1855.00,400.69
             1855.00,400.69 1828.00,413.25 1828.00,413.25
             1828.00,413.25 1785.00,433.31 1785.00,433.31
             1785.00,433.31 1738.00,455.42 1738.00,455.42
             1738.00,455.42 1716.00,465.76 1716.00,465.76
             1712.85,467.31 1707.45,470.43 1704.00,470.29
             1701.30,470.18 1695.78,467.20 1693.00,466.00
             1693.00,466.00 1666.00,453.26 1666.00,453.26
             1666.00,453.26 1587.00,416.25 1587.00,416.25
             1587.00,416.25 1525.00,387.24 1525.00,387.24
             1521.52,385.53 1508.62,380.11 1507.02,377.61
             1505.78,375.66 1506.00,372.27 1506.00,370.00
             1506.00,370.00 1506.00,104.00 1506.00,104.00
             1485.28,115.63 1458.85,138.15 1442.00,155.00
             1416.49,180.51 1394.52,210.70 1378.37,243.00
             1322.02,355.70 1336.05,489.69 1413.42,589.00
             1442.50,626.31 1478.94,657.43 1520.00,680.85
             1520.00,680.85 1549.00,695.74 1549.00,695.74
             1552.28,697.33 1559.31,699.79 1561.40,702.39
             1563.31,704.76 1562.99,708.13 1563.00,711.00
             1563.00,711.00 1563.00,1489.00 1563.00,1489.00
             1563.00,1489.00 1857.00,1489.00 1857.00,1489.00
             1857.00,1489.00 1857.00,699.00 1857.00,699.00
             1865.50,697.46 1882.68,688.42 1891.00,684.25
             1921.84,668.79 1953.65,645.35 1978.00,621.00
             2025.76,573.24 2059.55,511.67 2071.58,445.00
             2073.68,433.32 2075.98,416.72 2076.00,405.00
             2076.00,405.00 2077.00,385.00 2077.00,385.00
             2077.00,385.00 2076.00,368.00 2076.00,368.00
             2075.87,357.25 2072.59,336.88 2070.40,326.00
             2062.71,287.77 2048.19,252.09 2027.58,219.00
             2008.99,189.15 1983.87,160.07 1957.00,137.44
             1938.86,122.16 1922.60,111.80 1903.00,99.00 Z
           M 2830.00,926.00
           C 2830.00,926.00 2946.20,632.00 2946.20,632.00
             2946.20,632.00 3001.81,491.00 3001.81,491.00
             3012.13,464.37 3026.66,436.13 3027.00,407.00
             3027.21,389.15 3026.74,379.52 3022.12,362.00
             3012.43,325.25 2986.84,293.22 2954.00,274.43
             2939.69,266.23 2925.28,261.34 2910.00,255.58
             2910.00,255.58 2854.00,234.58 2854.00,234.58
             2854.00,234.58 2814.00,219.58 2814.00,219.58
             2791.28,211.00 2770.70,203.29 2746.00,203.00
             2699.16,202.46 2652.08,223.54 2624.43,262.00
             2611.44,280.06 2607.60,293.00 2599.60,313.00
             2599.60,313.00 2572.40,382.00 2572.40,382.00
             2572.40,382.00 2478.80,619.00 2478.80,619.00
             2478.80,619.00 2438.00,722.00 2438.00,722.00
             2438.00,722.00 2425.80,753.00 2425.80,753.00
             2424.65,755.88 2420.53,765.43 2420.46,767.90
             2420.35,772.01 2425.97,773.65 2429.00,775.45
             2436.28,779.78 2446.07,786.94 2451.83,793.04
             2469.06,811.26 2479.26,832.99 2481.09,858.00
             2481.09,858.00 2481.90,867.00 2481.90,867.00
             2479.71,916.54 2445.84,956.73 2397.00,966.55
             2388.07,968.35 2366.86,968.95 2358.00,967.56
             2358.00,967.56 2343.00,964.00 2343.00,964.00
             2343.00,964.00 2310.19,1048.00 2310.19,1048.00
             2304.90,1061.64 2295.17,1081.85 2295.00,1096.00
             2295.00,1096.00 2295.00,1103.00 2295.00,1103.00
             2295.04,1127.53 2310.15,1150.70 2332.00,1161.63
             2332.00,1161.63 2402.00,1188.42 2402.00,1188.42
             2402.00,1188.42 2535.00,1239.05 2535.00,1239.05
             2535.00,1239.05 2597.00,1262.68 2597.00,1262.68
             2612.13,1268.27 2625.52,1273.97 2642.00,1274.91
             2646.00,1275.13 2654.89,1273.66 2659.00,1272.79
             2679.98,1268.33 2696.63,1254.53 2706.96,1236.00
             2706.96,1236.00 2717.80,1210.00 2717.80,1210.00
             2717.80,1210.00 2735.00,1166.00 2735.00,1166.00
             2735.00,1166.00 2754.00,1117.00 2754.00,1117.00
             2743.10,1115.03 2731.49,1107.06 2723.00,1100.20
             2692.55,1075.58 2679.88,1031.39 2690.43,994.00
             2693.69,982.44 2699.44,971.72 2706.43,962.00
             2724.11,937.42 2756.42,919.36 2787.00,919.00
             2798.01,918.87 2802.08,918.98 2813.00,921.42
             2813.00,921.42 2830.00,926.00 2830.00,926.00 Z
           M 843.00,994.00
           C 843.00,994.00 890.00,971.25 890.00,971.25
             893.44,969.52 905.01,964.66 906.14,961.61
             907.85,958.55 906.05,948.99 906.14,945.00
             906.14,945.00 906.14,915.00 906.14,915.00
             906.14,915.00 905.00,899.00 905.00,899.00
             905.00,899.00 905.00,870.00 905.00,870.00
             904.99,865.80 903.08,856.44 905.60,853.65
             907.54,851.49 918.67,847.53 922.00,846.20
             922.00,846.20 961.00,830.60 961.00,830.60
             965.04,828.99 975.07,823.69 978.91,825.78
             981.10,826.97 993.70,842.00 996.27,845.00
             996.27,845.00 1035.00,890.00 1035.00,890.00
             1035.00,890.00 1052.17,909.36 1052.17,909.36
             1055.20,911.29 1057.97,909.78 1061.00,908.68
             1061.00,908.68 1082.00,900.60 1082.00,900.60
             1082.00,900.60 1137.00,879.42 1137.00,879.42
             1150.19,874.41 1161.99,870.99 1170.84,859.00
             1186.48,837.82 1180.70,821.12 1172.42,799.00
             1172.42,799.00 1162.42,772.00 1162.42,772.00
             1162.42,772.00 1117.95,652.00 1117.95,652.00
             1117.95,652.00 1093.69,587.00 1093.69,587.00
             1084.51,561.28 1078.91,535.03 1049.00,526.74
             1042.36,524.90 1038.75,524.92 1032.00,525.00
             1021.89,525.12 1011.50,530.41 1002.00,533.95
             1002.00,533.95 946.00,555.32 946.00,555.32
             946.00,555.32 926.00,562.95 926.00,562.95
             923.53,563.87 919.78,564.83 918.64,567.39
             917.38,569.94 918.38,575.23 918.64,578.00
             918.64,578.00 920.92,600.00 920.92,600.00
             920.92,600.00 926.83,660.00 926.83,660.00
             926.83,660.00 930.00,691.00 930.00,691.00
             930.00,691.00 887.00,707.60 887.00,707.60
             887.00,707.60 869.04,713.88 869.04,713.88
             869.04,713.88 861.91,708.00 861.91,708.00
             861.91,708.00 846.01,691.00 846.01,691.00
             846.01,691.00 802.83,644.00 802.83,644.00
             802.83,644.00 781.00,620.00 781.00,620.00
             781.00,620.00 732.00,638.80 732.00,638.80
             732.00,638.80 669.00,663.19 669.00,663.19
             669.00,663.19 488.00,733.19 488.00,733.19
             488.00,733.19 381.00,774.58 381.00,774.58
             381.00,774.58 315.00,800.78 315.00,800.78
             315.00,800.78 292.00,813.60 292.00,813.60
             227.09,852.31 176.59,913.49 145.70,982.00
             123.16,1031.98 110.65,1082.61 104.84,1137.00
             104.84,1137.00 102.00,1170.00 102.00,1170.00
             101.99,1176.42 99.90,1186.71 102.00,1192.00
             125.45,1156.83 155.15,1122.85 185.00,1093.00
             233.48,1044.52 288.93,1001.50 353.00,975.80
             377.24,966.08 406.96,957.34 433.00,954.93
             437.88,954.47 454.24,952.15 457.91,953.60
             461.22,954.91 466.62,962.08 469.13,965.00
             469.13,965.00 491.27,991.00 491.27,991.00
             491.27,991.00 544.27,1053.00 544.27,1053.00
             544.27,1053.00 573.00,1087.00 573.00,1087.00
             573.00,1087.00 674.00,1048.00 674.00,1048.00
             674.00,1048.00 687.95,1087.00 687.95,1087.00
             687.95,1087.00 713.95,1157.00 713.95,1157.00
             713.95,1157.00 799.05,1387.00 799.05,1387.00
             799.05,1387.00 827.95,1465.00 827.95,1465.00
             827.95,1465.00 833.81,1481.00 833.81,1481.00
             833.81,1481.00 837.51,1487.98 837.51,1487.98
             837.51,1487.98 845.00,1489.00 845.00,1489.00
             845.00,1489.00 1028.00,1489.00 1028.00,1489.00
             1028.00,1489.00 1019.42,1465.00 1019.42,1465.00
             1019.42,1465.00 1004.42,1425.00 1004.42,1425.00
             1004.42,1425.00 961.42,1310.00 961.42,1310.00
             961.42,1310.00 879.42,1091.00 879.42,1091.00
             879.42,1091.00 843.00,994.00 843.00,994.00 Z
           M 2518.00,1341.00
           C 2518.00,1341.00 2478.00,1326.42 2478.00,1326.42
             2478.00,1326.42 2417.00,1303.95 2417.00,1303.95
             2417.00,1303.95 2387.00,1293.00 2387.00,1293.00
             2387.00,1293.00 2338.58,1421.00 2338.58,1421.00
             2338.58,1421.00 2312.00,1492.00 2312.00,1492.00
             2312.00,1492.00 2454.00,1492.00 2454.00,1492.00
             2454.00,1492.00 2461.30,1491.01 2461.30,1491.01
             2461.30,1491.01 2465.95,1481.00 2465.95,1481.00
             2465.95,1481.00 2474.81,1457.00 2474.81,1457.00
             2474.81,1457.00 2518.00,1341.00 2518.00,1341.00 Z
           M 2610.00,1588.00
           C 2610.00,1588.00 516.00,1588.00 516.00,1588.00
             516.00,1588.00 529.13,1642.00 529.13,1642.00
             529.13,1642.00 551.87,1733.00 551.87,1733.00
             551.87,1733.00 564.00,1782.00 564.00,1782.00
             564.00,1782.00 1063.00,1782.00 1063.00,1782.00
             1063.00,1782.00 1216.00,1782.00 1216.00,1782.00
             1216.00,1782.00 1263.00,1782.00 1263.00,1782.00
             1263.00,1782.00 1288.00,1783.00 1288.00,1783.00
             1288.00,1783.00 1283.00,1786.00 1283.00,1786.00
             1288.31,1784.45 1306.13,1773.43 1312.00,1769.92
             1312.00,1769.92 1352.00,1746.92 1352.00,1746.92
             1352.00,1746.92 1386.00,1727.67 1386.00,1727.67
             1386.00,1727.67 1482.00,1672.30 1482.00,1672.30
             1482.00,1672.30 1522.00,1649.33 1522.00,1649.33
             1536.97,1641.07 1546.22,1635.41 1564.00,1635.01
             1571.52,1634.85 1582.98,1636.97 1590.09,1639.54
             1590.09,1639.54 1639.00,1666.58 1639.00,1666.58
             1639.00,1666.58 1780.00,1747.49 1780.00,1747.49
             1780.00,1747.49 1828.00,1775.13 1828.00,1775.13
             1832.04,1777.45 1841.91,1784.54 1846.00,1784.00
             1846.00,1784.00 1843.00,1782.00 1843.00,1782.00
             1843.00,1782.00 2562.00,1782.00 2562.00,1782.00
             2562.00,1782.00 2574.13,1733.00 2574.13,1733.00
             2574.13,1733.00 2596.87,1642.00 2596.87,1642.00
             2596.87,1642.00 2610.00,1588.00 2610.00,1588.00 Z
           M 1786.00,1836.00
           C 1786.00,1836.00 1733.00,1805.15 1733.00,1805.15
             1733.00,1805.15 1622.00,1741.40 1622.00,1741.40
             1622.00,1741.40 1580.00,1716.73 1580.00,1716.73
             1576.52,1714.80 1567.60,1709.10 1564.00,1709.97
             1564.00,1709.97 1538.00,1724.58 1538.00,1724.58
             1538.00,1724.58 1495.00,1749.44 1495.00,1749.44
             1495.00,1749.44 1388.00,1810.80 1388.00,1810.80
             1388.00,1810.80 1359.00,1827.58 1359.00,1827.58
             1354.07,1830.41 1348.17,1833.21 1344.00,1837.00
             1344.00,1837.00 1372.00,1853.42 1372.00,1853.42
             1372.00,1853.42 1456.00,1901.45 1456.00,1901.45
             1456.00,1901.45 1522.00,1939.61 1522.00,1939.61
             1522.00,1939.61 1549.00,1955.23 1549.00,1955.23
             1549.00,1955.23 1566.00,1965.00 1566.00,1965.00
             1566.00,1965.00 1591.96,1949.85 1591.96,1949.85
             1591.96,1949.85 1659.00,1911.01 1659.00,1911.01
             1659.00,1911.01 1738.00,1865.58 1738.00,1865.58
             1738.00,1865.58 1786.00,1838.00 1786.00,1838.00
             1786.00,1838.00 1786.00,1836.00 1786.00,1836.00 Z
           M 1847.00,1785.00
           C 1847.00,1785.00 1846.00,1786.00 1846.00,1786.00
             1846.00,1786.00 1853.00,1788.00 1853.00,1788.00
             1853.00,1788.00 1847.00,1785.00 1847.00,1785.00 Z
           M 1283.00,1786.00
           C 1283.00,1786.00 1276.00,1790.00 1276.00,1790.00
             1276.00,1790.00 1283.00,1786.00 1283.00,1786.00 Z
           M 1854.00,1789.00
           C 1854.00,1789.00 1853.00,1790.00 1853.00,1790.00
             1853.00,1790.00 1860.00,1792.00 1860.00,1792.00
             1860.00,1792.00 1854.00,1789.00 1854.00,1789.00 Z
           M 1276.00,1790.00
           C 1269.31,1791.95 1260.30,1797.54 1256.00,1803.00
             1256.00,1803.00 1276.00,1790.00 1276.00,1790.00 Z
           M 1861.00,1793.00
           C 1861.00,1793.00 1860.00,1794.00 1860.00,1794.00
             1860.00,1794.00 1865.00,1795.00 1865.00,1795.00
             1865.00,1795.00 1861.00,1793.00 1861.00,1793.00 Z
           M 1866.00,1796.00
           C 1866.00,1796.00 1865.00,1797.00 1865.00,1797.00
             1865.00,1797.00 1871.00,1800.00 1871.00,1800.00
             1871.00,1800.00 1866.00,1796.00 1866.00,1796.00 Z
           M 1872.00,1800.00
           C 1872.00,1800.00 1876.00,1804.00 1876.00,1804.00
             1876.00,1804.00 1872.00,1800.00 1872.00,1800.00 Z
           M 1256.00,1803.00
           C 1250.30,1805.70 1246.46,1810.25 1244.00,1816.00
             1244.00,1816.00 1256.00,1803.00 1256.00,1803.00 Z
           M 1877.00,1804.00
           C 1877.00,1804.00 1876.00,1804.00 1876.00,1804.00
             1876.00,1804.00 1877.00,1805.00 1877.00,1805.00
             1877.00,1805.00 1877.00,1804.00 1877.00,1804.00 Z
           M 1878.00,1805.00
           C 1878.00,1805.00 1882.00,1810.00 1882.00,1810.00
             1882.00,1810.00 1878.00,1805.00 1878.00,1805.00 Z
           M 1883.00,1810.00
           C 1883.00,1810.00 1889.55,1822.00 1889.55,1822.00
             1889.55,1822.00 1899.00,1844.00 1899.00,1844.00
             1898.42,1832.11 1890.86,1818.64 1883.00,1810.00 Z
           M 1244.00,1816.00
           C 1241.17,1818.50 1239.48,1820.04 1240.00,1824.00
             1240.00,1824.00 1244.00,1816.00 1244.00,1816.00 Z
           M 1239.00,1824.00
           C 1239.00,1824.00 1238.00,1828.00 1238.00,1828.00
             1238.00,1828.00 1239.00,1824.00 1239.00,1824.00 Z
           M 1237.00,1828.00
           C 1233.92,1831.99 1231.18,1838.02 1233.00,1843.00
             1233.00,1843.00 1237.00,1828.00 1237.00,1828.00 Z
           M 1232.00,1843.00
           C 1229.12,1849.24 1230.00,1860.84 1230.00,1868.00
             1230.00,1872.00 1229.51,1876.24 1231.00,1880.00
             1231.00,1880.00 1231.00,1857.00 1231.00,1857.00
             1231.00,1857.00 1232.00,1843.00 1232.00,1843.00 Z
           M 1899.98,1844.00
           C 1898.31,1848.31 1899.61,1850.64 1899.98,1855.00
             1899.98,1855.00 1899.98,1871.00 1899.98,1871.00
             1899.98,1871.00 1899.98,1937.00 1899.98,1937.00
             1899.98,1937.00 1899.98,2157.00 1899.98,2157.00
             1899.98,2171.59 1894.80,2186.98 1885.93,2198.58
             1885.93,2198.58 1871.00,2215.00 1871.00,2215.00
             1880.04,2212.56 1888.84,2208.92 1898.42,2208.83
             1920.52,2208.61 1933.56,2217.10 1952.00,2227.78
             1952.00,2227.78 1981.00,2244.57 1981.00,2244.57
             1981.00,2244.57 2078.00,2300.20 2078.00,2300.20
             2078.00,2300.20 2159.00,2346.77 2159.00,2346.77
             2159.00,2346.77 2182.00,2360.15 2182.00,2360.15
             2199.34,2370.10 2208.52,2373.57 2221.00,2390.00
             2224.95,2395.21 2228.51,2400.94 2230.62,2407.17
             2234.83,2419.62 2235.02,2427.33 2235.00,2440.00
             2235.00,2440.00 2235.00,2728.00 2235.00,2728.00
             2234.97,2751.21 2225.58,2771.13 2207.58,2785.96
             2202.26,2790.34 2186.64,2799.36 2180.00,2803.15
             2180.00,2803.15 1995.00,2909.16 1995.00,2909.16
             1995.00,2909.16 1954.00,2932.74 1954.00,2932.74
             1934.95,2943.90 1925.71,2951.00 1903.00,2952.84
             1897.85,2953.26 1894.96,2952.57 1890.00,2951.75
             1870.79,2948.61 1858.47,2939.65 1842.00,2930.06
             1842.00,2930.06 1768.00,2887.69 1768.00,2887.69
             1768.00,2887.69 1736.00,2868.99 1736.00,2868.99
             1736.00,2868.99 1640.00,2813.93 1640.00,2813.93
             1640.00,2813.93 1617.00,2800.56 1617.00,2800.56
             1601.69,2791.76 1592.05,2787.73 1580.61,2773.09
             1575.69,2766.80 1571.29,2759.74 1569.09,2752.00
             1569.09,2752.00 1565.00,2733.00 1565.00,2733.00
             1564.21,2744.37 1559.45,2763.22 1551.00,2771.00
             1549.54,2776.14 1542.27,2782.12 1538.00,2785.36
             1528.01,2792.96 1513.18,2801.58 1502.00,2807.60
             1502.00,2807.60 1469.00,2826.72 1469.00,2826.72
             1469.00,2826.72 1369.00,2883.85 1369.00,2883.85
             1369.00,2883.85 1310.00,2918.14 1310.00,2918.14
             1310.00,2918.14 1289.00,2929.80 1289.00,2929.80
             1270.74,2940.62 1251.25,2953.82 1229.00,2952.96
             1209.15,2952.19 1201.50,2946.37 1185.00,2937.31
             1185.00,2937.31 1161.00,2923.86 1161.00,2923.86
             1161.00,2923.86 1143.00,2913.26 1143.00,2913.26
             1143.00,2913.26 1107.00,2892.43 1107.00,2892.43
             1107.00,2892.43 1016.00,2840.58 1016.00,2840.58
             1016.00,2840.58 985.00,2822.31 985.00,2822.31
             985.00,2822.31 947.00,2800.43 947.00,2800.43
             926.34,2788.61 911.80,2781.41 901.57,2758.00
             896.82,2747.13 895.02,2731.85 895.00,2720.00
             895.00,2720.00 895.00,2442.00 895.00,2442.00
             895.03,2421.98 898.70,2403.04 911.66,2387.04
             920.86,2375.69 929.92,2371.27 942.00,2364.08
             942.00,2364.08 981.00,2341.67 981.00,2341.67
             981.00,2341.67 1060.00,2296.21 1060.00,2296.21
             1060.00,2296.21 1070.00,2290.16 1070.00,2290.16
             1070.00,2290.16 1108.00,2268.31 1108.00,2268.31
             1108.00,2268.31 1163.00,2236.87 1163.00,2236.87
             1163.00,2236.87 1181.00,2226.67 1181.00,2226.67
             1181.00,2226.67 1194.00,2218.73 1194.00,2218.73
             1204.91,2212.89 1217.59,2209.02 1230.00,2209.00
             1239.37,2208.99 1240.95,2209.26 1250.00,2211.86
             1253.72,2212.93 1258.36,2215.49 1262.00,2215.00
             1254.10,2209.38 1250.63,2205.78 1244.88,2198.00
             1242.59,2194.89 1238.58,2188.01 1236.00,2186.00
             1236.00,2186.00 1232.18,2169.17 1232.18,2169.17
             1232.18,2169.17 1230.00,2146.00 1230.00,2146.00
             1230.00,2146.00 1230.00,1880.00 1230.00,1880.00
             1230.00,1880.00 613.00,1880.00 613.00,1880.00
             613.00,1880.00 619.72,1933.00 619.72,1933.00
             619.72,1933.00 630.72,2019.00 630.72,2019.00
             630.72,2019.00 663.72,2277.00 663.72,2277.00
             663.72,2277.00 684.28,2439.00 684.28,2439.00
             684.28,2439.00 759.00,3022.00 759.00,3022.00
             759.00,3022.00 2367.00,3022.00 2367.00,3022.00
             2367.00,3022.00 2374.72,2961.00 2374.72,2961.00
             2374.72,2961.00 2385.72,2875.00 2385.72,2875.00
             2385.72,2875.00 2418.72,2617.00 2418.72,2617.00
             2418.72,2617.00 2513.00,1880.00 2513.00,1880.00
             2513.00,1880.00 1901.00,1880.00 1901.00,1880.00
             1901.00,1880.00 1901.00,1857.00 1901.00,1857.00
             1901.00,1857.00 1899.98,1844.00 1899.98,1844.00 Z
           M 1528.00,2284.00
           C 1528.00,2284.00 1528.00,2036.00 1528.00,2036.00
             1527.98,2025.57 1527.06,2027.20 1513.00,2019.13
             1513.00,2019.13 1479.00,1999.18 1479.00,1999.18
             1479.00,1999.18 1447.00,1980.91 1447.00,1980.91
             1447.00,1980.91 1361.00,1931.15 1361.00,1931.15
             1361.00,1931.15 1324.00,1909.57 1324.00,1909.57
             1317.95,1906.10 1310.56,1900.91 1304.00,1899.00
             1304.00,1899.00 1304.00,2146.00 1304.00,2146.00
             1304.00,2147.88 1303.87,2151.10 1304.60,2152.79
             1306.24,2156.63 1315.26,2160.64 1319.00,2162.81
             1319.00,2162.81 1356.00,2184.37 1356.00,2184.37
             1356.00,2184.37 1373.00,2194.01 1373.00,2194.01
             1373.00,2194.01 1441.00,2233.45 1441.00,2233.45
             1441.00,2233.45 1498.00,2266.50 1498.00,2266.50
             1498.00,2266.50 1528.00,2284.00 1528.00,2284.00 Z
           M 1826.00,1899.00
           C 1826.00,1899.00 1772.00,1929.91 1772.00,1929.91
             1772.00,1929.91 1705.00,1968.45 1705.00,1968.45
             1705.00,1968.45 1669.00,1989.31 1669.00,1989.31
             1669.00,1989.31 1655.00,1997.58 1655.00,1997.58
             1655.00,1997.58 1616.00,2020.27 1616.00,2020.27
             1602.63,2028.09 1602.02,2026.09 1602.00,2036.00
             1602.00,2036.00 1602.00,2205.00 1602.00,2205.00
             1602.00,2205.00 1602.00,2257.00 1602.00,2257.00
             1602.00,2264.16 1601.20,2277.68 1603.00,2284.00
             1603.00,2284.00 1774.00,2184.82 1774.00,2184.82
             1774.00,2184.82 1812.00,2162.95 1812.00,2162.95
             1825.80,2154.72 1825.98,2156.66 1826.00,2147.00
             1826.00,2147.00 1826.00,1899.00 1826.00,1899.00 Z
           M 1868.00,2216.00
           C 1868.00,2216.00 1867.00,2216.00 1867.00,2216.00
             1867.00,2216.00 1868.00,2217.00 1868.00,2217.00
             1868.00,2217.00 1868.00,2216.00 1868.00,2216.00 Z
           M 1866.00,2217.00
           C 1866.00,2217.00 1865.00,2217.00 1865.00,2217.00
             1865.00,2217.00 1866.00,2218.00 1866.00,2218.00
             1866.00,2218.00 1866.00,2217.00 1866.00,2217.00 Z
           M 1267.00,2218.00
           C 1267.00,2218.00 1266.00,2218.00 1266.00,2218.00
             1266.00,2218.00 1267.00,2219.00 1267.00,2219.00
             1267.00,2219.00 1267.00,2218.00 1267.00,2218.00 Z
           M 1865.00,2218.00
           C 1865.00,2218.00 1864.00,2218.00 1864.00,2218.00
             1864.00,2218.00 1865.00,2219.00 1865.00,2219.00
             1865.00,2219.00 1865.00,2218.00 1865.00,2218.00 Z
           M 1863.00,2219.00
           C 1863.00,2219.00 1862.00,2219.00 1862.00,2219.00
             1862.00,2219.00 1863.00,2220.00 1863.00,2220.00
             1863.00,2220.00 1863.00,2219.00 1863.00,2219.00 Z
           M 1861.00,2220.00
           C 1861.00,2220.00 1860.00,2220.00 1860.00,2220.00
             1860.00,2220.00 1861.00,2221.00 1861.00,2221.00
             1861.00,2221.00 1861.00,2220.00 1861.00,2220.00 Z
           M 1274.00,2222.00
           C 1274.00,2222.00 1273.00,2222.00 1273.00,2222.00
             1273.00,2222.00 1274.00,2223.00 1274.00,2223.00
             1274.00,2223.00 1274.00,2222.00 1274.00,2222.00 Z
           M 1856.00,2223.00
           C 1856.00,2223.00 1855.00,2223.00 1855.00,2223.00
             1855.00,2223.00 1856.00,2224.00 1856.00,2224.00
             1856.00,2224.00 1856.00,2223.00 1856.00,2223.00 Z
           M 1854.00,2224.00
           C 1854.00,2224.00 1853.00,2224.00 1853.00,2224.00
             1853.00,2224.00 1854.00,2225.00 1854.00,2225.00
             1854.00,2225.00 1854.00,2224.00 1854.00,2224.00 Z
           M 1852.00,2225.00
           C 1852.00,2225.00 1851.00,2225.00 1851.00,2225.00
             1851.00,2225.00 1852.00,2226.00 1852.00,2226.00
             1852.00,2226.00 1852.00,2225.00 1852.00,2225.00 Z
           M 1850.00,2226.00
           C 1850.00,2226.00 1849.00,2226.00 1849.00,2226.00
             1849.00,2226.00 1850.00,2227.00 1850.00,2227.00
             1850.00,2227.00 1850.00,2226.00 1850.00,2226.00 Z
           M 1849.00,2227.00
           C 1849.00,2227.00 1848.00,2227.00 1848.00,2227.00
             1848.00,2227.00 1849.00,2228.00 1849.00,2228.00
             1849.00,2228.00 1849.00,2227.00 1849.00,2227.00 Z
           M 1848.00,2228.00
           C 1848.00,2228.00 1847.00,2228.00 1847.00,2228.00
             1847.00,2228.00 1848.00,2229.00 1848.00,2229.00
             1848.00,2229.00 1848.00,2228.00 1848.00,2228.00 Z
           M 1290.00,2231.00
           C 1290.00,2231.00 1289.00,2231.00 1289.00,2231.00
             1289.00,2231.00 1290.00,2232.00 1290.00,2232.00
             1290.00,2232.00 1290.00,2231.00 1290.00,2231.00 Z
           M 1842.00,2231.00
           C 1842.00,2231.00 1841.00,2231.00 1841.00,2231.00
             1841.00,2231.00 1842.00,2232.00 1842.00,2232.00
             1842.00,2232.00 1842.00,2231.00 1842.00,2231.00 Z
           M 1837.00,2234.00
           C 1837.00,2234.00 1836.00,2234.00 1836.00,2234.00
             1836.00,2234.00 1837.00,2235.00 1837.00,2235.00
             1837.00,2235.00 1837.00,2234.00 1837.00,2234.00 Z
           M 1299.00,2236.00
           C 1299.00,2236.00 1298.00,2236.00 1298.00,2236.00
             1298.00,2236.00 1299.00,2237.00 1299.00,2237.00
             1299.00,2237.00 1299.00,2236.00 1299.00,2236.00 Z
           M 1834.00,2236.00
           C 1834.00,2236.00 1833.00,2236.00 1833.00,2236.00
             1833.00,2236.00 1834.00,2237.00 1834.00,2237.00
             1834.00,2237.00 1834.00,2236.00 1834.00,2236.00 Z
           M 1300.00,2237.00
           C 1300.00,2237.00 1299.00,2237.00 1299.00,2237.00
             1299.00,2237.00 1300.00,2238.00 1300.00,2238.00
             1300.00,2238.00 1300.00,2237.00 1300.00,2237.00 Z
           M 1831.00,2237.00
           C 1831.00,2237.00 1830.00,2237.00 1830.00,2237.00
             1830.00,2237.00 1831.00,2238.00 1831.00,2238.00
             1831.00,2238.00 1831.00,2237.00 1831.00,2237.00 Z
           M 1302.00,2238.00
           C 1302.00,2238.00 1301.00,2238.00 1301.00,2238.00
             1301.00,2238.00 1302.00,2239.00 1302.00,2239.00
             1302.00,2239.00 1302.00,2238.00 1302.00,2238.00 Z
           M 1830.00,2238.00
           C 1830.00,2238.00 1829.00,2238.00 1829.00,2238.00
             1829.00,2238.00 1830.00,2239.00 1830.00,2239.00
             1830.00,2239.00 1830.00,2238.00 1830.00,2238.00 Z
           M 1304.00,2239.00
           C 1304.00,2239.00 1303.00,2239.00 1303.00,2239.00
             1303.00,2239.00 1304.00,2240.00 1304.00,2240.00
             1304.00,2240.00 1304.00,2239.00 1304.00,2239.00 Z
           M 1828.00,2239.00
           C 1828.00,2239.00 1827.00,2239.00 1827.00,2239.00
             1827.00,2239.00 1828.00,2240.00 1828.00,2240.00
             1828.00,2240.00 1828.00,2239.00 1828.00,2239.00 Z
           M 1823.00,2242.00
           C 1823.00,2242.00 1822.00,2242.00 1822.00,2242.00
             1822.00,2242.00 1823.00,2243.00 1823.00,2243.00
             1823.00,2243.00 1823.00,2242.00 1823.00,2242.00 Z
           M 1821.00,2243.00
           C 1821.00,2243.00 1820.00,2243.00 1820.00,2243.00
             1820.00,2243.00 1821.00,2244.00 1821.00,2244.00
             1821.00,2244.00 1821.00,2243.00 1821.00,2243.00 Z
           M 1314.00,2245.00
           C 1314.00,2245.00 1313.00,2245.00 1313.00,2245.00
             1313.00,2245.00 1314.00,2246.00 1314.00,2246.00
             1314.00,2246.00 1314.00,2245.00 1314.00,2245.00 Z
           M 1814.00,2247.00
           C 1814.00,2247.00 1813.00,2247.00 1813.00,2247.00
             1813.00,2247.00 1814.00,2248.00 1814.00,2248.00
             1814.00,2248.00 1814.00,2247.00 1814.00,2247.00 Z
           M 1812.00,2248.00
           C 1812.00,2248.00 1811.00,2248.00 1811.00,2248.00
             1811.00,2248.00 1812.00,2249.00 1812.00,2249.00
             1812.00,2249.00 1812.00,2248.00 1812.00,2248.00 Z
           M 1810.00,2249.00
           C 1810.00,2249.00 1809.00,2249.00 1809.00,2249.00
             1809.00,2249.00 1810.00,2250.00 1810.00,2250.00
             1810.00,2250.00 1810.00,2249.00 1810.00,2249.00 Z
           M 1809.00,2250.00
           C 1809.00,2250.00 1808.00,2250.00 1808.00,2250.00
             1808.00,2250.00 1809.00,2251.00 1809.00,2251.00
             1809.00,2251.00 1809.00,2250.00 1809.00,2250.00 Z
           M 1808.00,2251.00
           C 1808.00,2251.00 1807.00,2251.00 1807.00,2251.00
             1807.00,2251.00 1808.00,2252.00 1808.00,2252.00
             1808.00,2252.00 1808.00,2251.00 1808.00,2251.00 Z
           M 1330.00,2254.00
           C 1330.00,2254.00 1329.00,2254.00 1329.00,2254.00
             1329.00,2254.00 1330.00,2255.00 1330.00,2255.00
             1330.00,2255.00 1330.00,2254.00 1330.00,2254.00 Z
           M 1802.00,2254.00
           C 1802.00,2254.00 1801.00,2254.00 1801.00,2254.00
             1801.00,2254.00 1802.00,2255.00 1802.00,2255.00
             1802.00,2255.00 1802.00,2254.00 1802.00,2254.00 Z
           M 1797.00,2257.00
           C 1797.00,2257.00 1796.00,2257.00 1796.00,2257.00
             1796.00,2257.00 1797.00,2258.00 1797.00,2258.00
             1797.00,2258.00 1797.00,2257.00 1797.00,2257.00 Z
           M 1339.00,2259.00
           C 1339.00,2259.00 1338.00,2259.00 1338.00,2259.00
             1338.00,2259.00 1339.00,2260.00 1339.00,2260.00
             1339.00,2260.00 1339.00,2259.00 1339.00,2259.00 Z
           M 1794.00,2259.00
           C 1794.00,2259.00 1793.00,2259.00 1793.00,2259.00
             1793.00,2259.00 1794.00,2260.00 1794.00,2260.00
             1794.00,2260.00 1794.00,2259.00 1794.00,2259.00 Z
           M 1340.00,2260.00
           C 1340.00,2260.00 1339.00,2260.00 1339.00,2260.00
             1339.00,2260.00 1340.00,2261.00 1340.00,2261.00
             1340.00,2261.00 1340.00,2260.00 1340.00,2260.00 Z
           M 1791.00,2260.00
           C 1791.00,2260.00 1790.00,2260.00 1790.00,2260.00
             1790.00,2260.00 1791.00,2261.00 1791.00,2261.00
             1791.00,2261.00 1791.00,2260.00 1791.00,2260.00 Z
           M 1342.00,2261.00
           C 1342.00,2261.00 1341.00,2261.00 1341.00,2261.00
             1341.00,2261.00 1342.00,2262.00 1342.00,2262.00
             1342.00,2262.00 1342.00,2261.00 1342.00,2261.00 Z
           M 1790.00,2261.00
           C 1790.00,2261.00 1789.00,2261.00 1789.00,2261.00
             1789.00,2261.00 1790.00,2262.00 1790.00,2262.00
             1790.00,2262.00 1790.00,2261.00 1790.00,2261.00 Z
           M 1344.00,2262.00
           C 1344.00,2262.00 1343.00,2262.00 1343.00,2262.00
             1343.00,2262.00 1344.00,2263.00 1344.00,2263.00
             1344.00,2263.00 1344.00,2262.00 1344.00,2262.00 Z
           M 1788.00,2262.00
           C 1788.00,2262.00 1787.00,2262.00 1787.00,2262.00
             1787.00,2262.00 1788.00,2263.00 1788.00,2263.00
             1788.00,2263.00 1788.00,2262.00 1788.00,2262.00 Z
           M 1783.00,2265.00
           C 1783.00,2265.00 1782.00,2265.00 1782.00,2265.00
             1782.00,2265.00 1783.00,2266.00 1783.00,2266.00
             1783.00,2266.00 1783.00,2265.00 1783.00,2265.00 Z
           M 1781.00,2266.00
           C 1781.00,2266.00 1780.00,2266.00 1780.00,2266.00
             1780.00,2266.00 1781.00,2267.00 1781.00,2267.00
             1781.00,2267.00 1781.00,2266.00 1781.00,2266.00 Z
           M 1354.00,2268.00
           C 1354.00,2268.00 1353.00,2268.00 1353.00,2268.00
             1353.00,2268.00 1354.00,2269.00 1354.00,2269.00
             1354.00,2269.00 1354.00,2268.00 1354.00,2268.00 Z
           M 1774.00,2270.00
           C 1774.00,2270.00 1773.00,2270.00 1773.00,2270.00
             1773.00,2270.00 1774.00,2271.00 1774.00,2271.00
             1774.00,2271.00 1774.00,2270.00 1774.00,2270.00 Z
           M 1772.00,2271.00
           C 1772.00,2271.00 1771.00,2271.00 1771.00,2271.00
             1771.00,2271.00 1772.00,2272.00 1772.00,2272.00
             1772.00,2272.00 1772.00,2271.00 1772.00,2271.00 Z
           M 1770.00,2272.00
           C 1770.00,2272.00 1769.00,2272.00 1769.00,2272.00
             1769.00,2272.00 1770.00,2273.00 1770.00,2273.00
             1770.00,2273.00 1770.00,2272.00 1770.00,2272.00 Z
           M 1769.00,2273.00
           C 1769.00,2273.00 1768.00,2273.00 1768.00,2273.00
             1768.00,2273.00 1769.00,2274.00 1769.00,2274.00
             1769.00,2274.00 1769.00,2273.00 1769.00,2273.00 Z
           M 1768.00,2274.00
           C 1768.00,2274.00 1767.00,2274.00 1767.00,2274.00
             1767.00,2274.00 1768.00,2275.00 1768.00,2275.00
             1768.00,2275.00 1768.00,2274.00 1768.00,2274.00 Z
           M 1370.00,2277.00
           C 1370.00,2277.00 1369.00,2277.00 1369.00,2277.00
             1369.00,2277.00 1370.00,2278.00 1370.00,2278.00
             1370.00,2278.00 1370.00,2277.00 1370.00,2277.00 Z
           M 1762.00,2277.00
           C 1762.00,2277.00 1761.00,2277.00 1761.00,2277.00
             1761.00,2277.00 1762.00,2278.00 1762.00,2278.00
             1762.00,2278.00 1762.00,2277.00 1762.00,2277.00 Z
           M 1757.00,2280.00
           C 1757.00,2280.00 1756.00,2280.00 1756.00,2280.00
             1756.00,2280.00 1757.00,2281.00 1757.00,2281.00
             1757.00,2281.00 1757.00,2280.00 1757.00,2280.00 Z
           M 1379.00,2282.00
           C 1379.00,2282.00 1378.00,2282.00 1378.00,2282.00
             1378.00,2282.00 1379.00,2283.00 1379.00,2283.00
             1379.00,2283.00 1379.00,2282.00 1379.00,2282.00 Z
           M 1754.00,2282.00
           C 1754.00,2282.00 1753.00,2282.00 1753.00,2282.00
             1753.00,2282.00 1754.00,2283.00 1754.00,2283.00
             1754.00,2283.00 1754.00,2282.00 1754.00,2282.00 Z
           M 1451.00,2410.00
           C 1451.00,2410.00 1285.00,2314.06 1285.00,2314.06
             1285.00,2314.06 1245.00,2291.00 1245.00,2291.00
             1241.19,2288.82 1233.20,2283.05 1229.00,2283.93
             1226.00,2284.56 1214.25,2291.68 1211.00,2293.66
             1211.00,2293.66 1184.00,2309.31 1184.00,2309.31
             1184.00,2309.31 1129.00,2340.85 1129.00,2340.85
             1129.00,2340.85 1101.00,2357.34 1101.00,2357.34
             1101.00,2357.34 1037.00,2394.34 1037.00,2394.34
             1030.52,2397.95 1013.35,2406.23 1010.00,2412.00
             1017.12,2414.72 1026.29,2420.90 1033.00,2424.77
             1033.00,2424.77 1072.00,2447.25 1072.00,2447.25
             1072.00,2447.25 1170.00,2503.61 1170.00,2503.61
             1170.00,2503.61 1212.00,2527.94 1212.00,2527.94
             1215.31,2529.78 1226.20,2536.91 1229.00,2537.36
             1233.09,2538.03 1243.34,2531.47 1247.00,2529.16
             1247.00,2529.16 1286.00,2506.45 1286.00,2506.45
             1286.00,2506.45 1351.83,2468.71 1351.83,2468.71
             1351.83,2468.71 1390.00,2446.30 1390.00,2446.30
             1390.00,2446.30 1433.00,2421.42 1433.00,2421.42
             1438.83,2417.86 1446.22,2414.80 1451.00,2410.00 Z
           M 1380.00,2283.00
           C 1380.00,2283.00 1379.00,2283.00 1379.00,2283.00
             1379.00,2283.00 1380.00,2284.00 1380.00,2284.00
             1380.00,2284.00 1380.00,2283.00 1380.00,2283.00 Z
           M 2121.00,2410.00
           C 2121.00,2410.00 2101.00,2398.58 2101.00,2398.58
             2101.00,2398.58 2044.00,2365.55 2044.00,2365.55
             2044.00,2365.55 1982.00,2329.71 1982.00,2329.71
             1982.00,2329.71 1956.00,2314.58 1956.00,2314.58
             1956.00,2314.58 1916.00,2291.51 1916.00,2291.51
             1912.33,2289.42 1903.92,2283.60 1900.00,2283.81
             1896.19,2284.00 1881.92,2293.00 1878.00,2295.47
             1878.00,2295.47 1865.00,2302.74 1865.00,2302.74
             1865.00,2302.74 1836.00,2319.77 1836.00,2319.77
             1836.00,2319.77 1716.91,2388.69 1716.91,2388.69
             1716.91,2388.69 1680.00,2410.00 1680.00,2410.00
             1683.95,2414.29 1694.53,2419.73 1700.00,2422.78
             1700.00,2422.78 1729.00,2439.50 1729.00,2439.50
             1729.00,2439.50 1805.00,2483.75 1805.00,2483.75
             1805.00,2483.75 1840.00,2503.69 1840.00,2503.69
             1840.00,2503.69 1863.00,2516.86 1863.00,2516.86
             1863.00,2516.86 1884.00,2529.11 1884.00,2529.11
             1887.79,2531.17 1896.33,2537.38 1900.00,2537.52
             1903.93,2537.67 1913.47,2531.25 1917.17,2528.99
             1917.17,2528.99 1957.00,2505.99 1957.00,2505.99
             1957.00,2505.99 2070.00,2440.62 2070.00,2440.62
             2070.00,2440.62 2102.15,2421.95 2102.15,2421.95
             2107.03,2419.25 2117.43,2413.57 2121.00,2410.00 Z
           M 1382.00,2284.00
           C 1382.00,2284.00 1381.00,2284.00 1381.00,2284.00
             1381.00,2284.00 1382.00,2285.00 1382.00,2285.00
             1382.00,2285.00 1382.00,2284.00 1382.00,2284.00 Z
           M 1750.00,2284.00
           C 1750.00,2284.00 1749.00,2284.00 1749.00,2284.00
             1749.00,2284.00 1750.00,2285.00 1750.00,2285.00
             1750.00,2285.00 1750.00,2284.00 1750.00,2284.00 Z
           M 1384.00,2285.00
           C 1384.00,2285.00 1383.00,2285.00 1383.00,2285.00
             1383.00,2285.00 1384.00,2286.00 1384.00,2286.00
             1384.00,2286.00 1384.00,2285.00 1384.00,2285.00 Z
           M 1748.00,2285.00
           C 1748.00,2285.00 1747.00,2285.00 1747.00,2285.00
             1747.00,2285.00 1748.00,2286.00 1748.00,2286.00
             1748.00,2286.00 1748.00,2285.00 1748.00,2285.00 Z
           M 1743.00,2288.00
           C 1743.00,2288.00 1742.00,2288.00 1742.00,2288.00
             1742.00,2288.00 1743.00,2289.00 1743.00,2289.00
             1743.00,2289.00 1743.00,2288.00 1743.00,2288.00 Z
           M 1741.00,2289.00
           C 1741.00,2289.00 1740.00,2289.00 1740.00,2289.00
             1740.00,2289.00 1741.00,2290.00 1741.00,2290.00
             1741.00,2290.00 1741.00,2289.00 1741.00,2289.00 Z
           M 1394.00,2291.00
           C 1394.00,2291.00 1393.00,2291.00 1393.00,2291.00
             1393.00,2291.00 1394.00,2292.00 1394.00,2292.00
             1394.00,2292.00 1394.00,2291.00 1394.00,2291.00 Z
           M 1734.00,2293.00
           C 1734.00,2293.00 1733.00,2293.00 1733.00,2293.00
             1733.00,2293.00 1734.00,2294.00 1734.00,2294.00
             1734.00,2294.00 1734.00,2293.00 1734.00,2293.00 Z
           M 1732.00,2294.00
           C 1732.00,2294.00 1731.00,2294.00 1731.00,2294.00
             1731.00,2294.00 1732.00,2295.00 1732.00,2295.00
             1732.00,2295.00 1732.00,2294.00 1732.00,2294.00 Z
           M 1730.00,2295.00
           C 1730.00,2295.00 1729.00,2295.00 1729.00,2295.00
             1729.00,2295.00 1730.00,2296.00 1730.00,2296.00
             1730.00,2296.00 1730.00,2295.00 1730.00,2295.00 Z
           M 1729.00,2296.00
           C 1729.00,2296.00 1728.00,2296.00 1728.00,2296.00
             1728.00,2296.00 1729.00,2297.00 1729.00,2297.00
             1729.00,2297.00 1729.00,2296.00 1729.00,2296.00 Z
           M 1728.00,2297.00
           C 1728.00,2297.00 1727.00,2297.00 1727.00,2297.00
             1727.00,2297.00 1728.00,2298.00 1728.00,2298.00
             1728.00,2298.00 1728.00,2297.00 1728.00,2297.00 Z
           M 1410.00,2300.00
           C 1410.00,2300.00 1409.00,2300.00 1409.00,2300.00
             1409.00,2300.00 1410.00,2301.00 1410.00,2301.00
             1410.00,2301.00 1410.00,2300.00 1410.00,2300.00 Z
           M 1722.00,2300.00
           C 1722.00,2300.00 1721.00,2300.00 1721.00,2300.00
             1721.00,2300.00 1722.00,2301.00 1722.00,2301.00
             1722.00,2301.00 1722.00,2300.00 1722.00,2300.00 Z
           M 1717.00,2303.00
           C 1717.00,2303.00 1716.00,2303.00 1716.00,2303.00
             1716.00,2303.00 1717.00,2304.00 1717.00,2304.00
             1717.00,2304.00 1717.00,2303.00 1717.00,2303.00 Z
           M 1715.00,2304.00
           C 1715.00,2304.00 1714.00,2304.00 1714.00,2304.00
             1714.00,2304.00 1715.00,2305.00 1715.00,2305.00
             1715.00,2305.00 1715.00,2304.00 1715.00,2304.00 Z
           M 1419.00,2305.00
           C 1419.00,2305.00 1418.00,2305.00 1418.00,2305.00
             1418.00,2305.00 1419.00,2306.00 1419.00,2306.00
             1419.00,2306.00 1419.00,2305.00 1419.00,2305.00 Z
           M 1714.00,2305.00
           C 1714.00,2305.00 1713.00,2305.00 1713.00,2305.00
             1713.00,2305.00 1714.00,2306.00 1714.00,2306.00
             1714.00,2306.00 1714.00,2305.00 1714.00,2305.00 Z
           M 1420.00,2306.00
           C 1420.00,2306.00 1419.00,2306.00 1419.00,2306.00
             1419.00,2306.00 1420.00,2307.00 1420.00,2307.00
             1420.00,2307.00 1420.00,2306.00 1420.00,2306.00 Z
           M 1711.00,2306.00
           C 1711.00,2306.00 1710.00,2306.00 1710.00,2306.00
             1710.00,2306.00 1711.00,2307.00 1711.00,2307.00
             1711.00,2307.00 1711.00,2306.00 1711.00,2306.00 Z
           M 1422.00,2307.00
           C 1422.00,2307.00 1421.00,2307.00 1421.00,2307.00
             1421.00,2307.00 1422.00,2308.00 1422.00,2308.00
             1422.00,2308.00 1422.00,2307.00 1422.00,2307.00 Z
           M 1710.00,2307.00
           C 1710.00,2307.00 1709.00,2307.00 1709.00,2307.00
             1709.00,2307.00 1710.00,2308.00 1710.00,2308.00
             1710.00,2308.00 1710.00,2307.00 1710.00,2307.00 Z
           M 1424.00,2308.00
           C 1424.00,2308.00 1423.00,2308.00 1423.00,2308.00
             1423.00,2308.00 1424.00,2309.00 1424.00,2309.00
             1424.00,2309.00 1424.00,2308.00 1424.00,2308.00 Z
           M 1708.00,2308.00
           C 1708.00,2308.00 1707.00,2308.00 1707.00,2308.00
             1707.00,2308.00 1708.00,2309.00 1708.00,2309.00
             1708.00,2309.00 1708.00,2308.00 1708.00,2308.00 Z
           M 1429.00,2311.00
           C 1429.00,2311.00 1428.00,2311.00 1428.00,2311.00
             1428.00,2311.00 1429.00,2312.00 1429.00,2312.00
             1429.00,2312.00 1429.00,2311.00 1429.00,2311.00 Z
           M 1703.00,2311.00
           C 1703.00,2311.00 1702.00,2311.00 1702.00,2311.00
             1702.00,2311.00 1703.00,2312.00 1703.00,2312.00
             1703.00,2312.00 1703.00,2311.00 1703.00,2311.00 Z
           M 1701.00,2312.00
           C 1701.00,2312.00 1700.00,2312.00 1700.00,2312.00
             1700.00,2312.00 1701.00,2313.00 1701.00,2313.00
             1701.00,2313.00 1701.00,2312.00 1701.00,2312.00 Z
           M 1434.00,2314.00
           C 1434.00,2314.00 1433.00,2314.00 1433.00,2314.00
             1433.00,2314.00 1434.00,2315.00 1434.00,2315.00
             1434.00,2315.00 1434.00,2314.00 1434.00,2314.00 Z
           M 1694.00,2316.00
           C 1694.00,2316.00 1693.00,2316.00 1693.00,2316.00
             1693.00,2316.00 1694.00,2317.00 1694.00,2317.00
             1694.00,2317.00 1694.00,2316.00 1694.00,2316.00 Z
           M 1692.00,2317.00
           C 1692.00,2317.00 1691.00,2317.00 1691.00,2317.00
             1691.00,2317.00 1692.00,2318.00 1692.00,2318.00
             1692.00,2318.00 1692.00,2317.00 1692.00,2317.00 Z
           M 1690.00,2318.00
           C 1690.00,2318.00 1689.00,2318.00 1689.00,2318.00
             1689.00,2318.00 1690.00,2319.00 1690.00,2319.00
             1690.00,2319.00 1690.00,2318.00 1690.00,2318.00 Z
           M 1688.00,2320.00
           C 1688.00,2320.00 1687.00,2320.00 1687.00,2320.00
             1687.00,2320.00 1688.00,2321.00 1688.00,2321.00
             1688.00,2321.00 1688.00,2320.00 1688.00,2320.00 Z
           M 1450.00,2323.00
           C 1450.00,2323.00 1449.00,2323.00 1449.00,2323.00
             1449.00,2323.00 1450.00,2324.00 1450.00,2324.00
             1450.00,2324.00 1450.00,2323.00 1450.00,2323.00 Z
           M 1682.00,2323.00
           C 1682.00,2323.00 1681.00,2323.00 1681.00,2323.00
             1681.00,2323.00 1682.00,2324.00 1682.00,2324.00
             1682.00,2324.00 1682.00,2323.00 1682.00,2323.00 Z
           M 1677.00,2326.00
           C 1677.00,2326.00 1676.00,2326.00 1676.00,2326.00
             1676.00,2326.00 1677.00,2327.00 1677.00,2327.00
             1677.00,2327.00 1677.00,2326.00 1677.00,2326.00 Z
           M 1675.00,2327.00
           C 1675.00,2327.00 1674.00,2327.00 1674.00,2327.00
             1674.00,2327.00 1675.00,2328.00 1675.00,2328.00
             1675.00,2328.00 1675.00,2327.00 1675.00,2327.00 Z
           M 1459.00,2328.00
           C 1459.00,2328.00 1458.00,2328.00 1458.00,2328.00
             1458.00,2328.00 1459.00,2329.00 1459.00,2329.00
             1459.00,2329.00 1459.00,2328.00 1459.00,2328.00 Z
           M 1674.00,2328.00
           C 1674.00,2328.00 1673.00,2328.00 1673.00,2328.00
             1673.00,2328.00 1674.00,2329.00 1674.00,2329.00
             1674.00,2329.00 1674.00,2328.00 1674.00,2328.00 Z
           M 1460.00,2329.00
           C 1460.00,2329.00 1459.00,2329.00 1459.00,2329.00
             1459.00,2329.00 1460.00,2330.00 1460.00,2330.00
             1460.00,2330.00 1460.00,2329.00 1460.00,2329.00 Z
           M 1671.00,2329.00
           C 1671.00,2329.00 1670.00,2329.00 1670.00,2329.00
             1670.00,2329.00 1671.00,2330.00 1671.00,2330.00
             1671.00,2330.00 1671.00,2329.00 1671.00,2329.00 Z
           M 1462.00,2330.00
           C 1462.00,2330.00 1461.00,2330.00 1461.00,2330.00
             1461.00,2330.00 1462.00,2331.00 1462.00,2331.00
             1462.00,2331.00 1462.00,2330.00 1462.00,2330.00 Z
           M 1670.00,2330.00
           C 1670.00,2330.00 1669.00,2330.00 1669.00,2330.00
             1669.00,2330.00 1670.00,2331.00 1670.00,2331.00
             1670.00,2331.00 1670.00,2330.00 1670.00,2330.00 Z
           M 1464.00,2331.00
           C 1464.00,2331.00 1463.00,2331.00 1463.00,2331.00
             1463.00,2331.00 1464.00,2332.00 1464.00,2332.00
             1464.00,2332.00 1464.00,2331.00 1464.00,2331.00 Z
           M 1668.00,2331.00
           C 1668.00,2331.00 1667.00,2331.00 1667.00,2331.00
             1667.00,2331.00 1668.00,2332.00 1668.00,2332.00
             1668.00,2332.00 1668.00,2331.00 1668.00,2331.00 Z
           M 1469.00,2334.00
           C 1469.00,2334.00 1468.00,2334.00 1468.00,2334.00
             1468.00,2334.00 1469.00,2335.00 1469.00,2335.00
             1469.00,2335.00 1469.00,2334.00 1469.00,2334.00 Z
           M 1663.00,2334.00
           C 1663.00,2334.00 1662.00,2334.00 1662.00,2334.00
             1662.00,2334.00 1663.00,2335.00 1663.00,2335.00
             1663.00,2335.00 1663.00,2334.00 1663.00,2334.00 Z
           M 1661.00,2335.00
           C 1661.00,2335.00 1660.00,2335.00 1660.00,2335.00
             1660.00,2335.00 1661.00,2336.00 1661.00,2336.00
             1661.00,2336.00 1661.00,2335.00 1661.00,2335.00 Z
           M 1474.00,2337.00
           C 1474.00,2337.00 1473.00,2337.00 1473.00,2337.00
             1473.00,2337.00 1474.00,2338.00 1474.00,2338.00
             1474.00,2338.00 1474.00,2337.00 1474.00,2337.00 Z
           M 1654.00,2339.00
           C 1654.00,2339.00 1653.00,2339.00 1653.00,2339.00
             1653.00,2339.00 1654.00,2340.00 1654.00,2340.00
             1654.00,2340.00 1654.00,2339.00 1654.00,2339.00 Z
           M 1652.00,2340.00
           C 1652.00,2340.00 1651.00,2340.00 1651.00,2340.00
             1651.00,2340.00 1652.00,2341.00 1652.00,2341.00
             1652.00,2341.00 1652.00,2340.00 1652.00,2340.00 Z
           M 1650.00,2341.00
           C 1650.00,2341.00 1649.00,2341.00 1649.00,2341.00
             1649.00,2341.00 1650.00,2342.00 1650.00,2342.00
             1650.00,2342.00 1650.00,2341.00 1650.00,2341.00 Z
           M 1648.00,2343.00
           C 1648.00,2343.00 1647.00,2343.00 1647.00,2343.00
             1647.00,2343.00 1648.00,2344.00 1648.00,2344.00
             1648.00,2344.00 1648.00,2343.00 1648.00,2343.00 Z
           M 1490.00,2346.00
           C 1490.00,2346.00 1489.00,2346.00 1489.00,2346.00
             1489.00,2346.00 1490.00,2347.00 1490.00,2347.00
             1490.00,2347.00 1490.00,2346.00 1490.00,2346.00 Z
           M 1642.00,2346.00
           C 1642.00,2346.00 1641.00,2346.00 1641.00,2346.00
             1641.00,2346.00 1642.00,2347.00 1642.00,2347.00
             1642.00,2347.00 1642.00,2346.00 1642.00,2346.00 Z
           M 1637.00,2349.00
           C 1637.00,2349.00 1636.00,2349.00 1636.00,2349.00
             1636.00,2349.00 1637.00,2350.00 1637.00,2350.00
             1637.00,2350.00 1637.00,2349.00 1637.00,2349.00 Z
           M 1635.00,2350.00
           C 1635.00,2350.00 1634.00,2350.00 1634.00,2350.00
             1634.00,2350.00 1635.00,2351.00 1635.00,2351.00
             1635.00,2351.00 1635.00,2350.00 1635.00,2350.00 Z
           M 1499.00,2351.00
           C 1499.00,2351.00 1498.00,2351.00 1498.00,2351.00
             1498.00,2351.00 1499.00,2352.00 1499.00,2352.00
             1499.00,2352.00 1499.00,2351.00 1499.00,2351.00 Z
           M 1634.00,2351.00
           C 1634.00,2351.00 1633.00,2351.00 1633.00,2351.00
             1633.00,2351.00 1634.00,2352.00 1634.00,2352.00
             1634.00,2352.00 1634.00,2351.00 1634.00,2351.00 Z
           M 1500.00,2352.00
           C 1500.00,2352.00 1499.00,2352.00 1499.00,2352.00
             1499.00,2352.00 1500.00,2353.00 1500.00,2353.00
             1500.00,2353.00 1500.00,2352.00 1500.00,2352.00 Z
           M 1631.00,2352.00
           C 1631.00,2352.00 1630.00,2352.00 1630.00,2352.00
             1630.00,2352.00 1631.00,2353.00 1631.00,2353.00
             1631.00,2353.00 1631.00,2352.00 1631.00,2352.00 Z
           M 1502.00,2353.00
           C 1502.00,2353.00 1501.00,2353.00 1501.00,2353.00
             1501.00,2353.00 1502.00,2354.00 1502.00,2354.00
             1502.00,2354.00 1502.00,2353.00 1502.00,2353.00 Z
           M 1630.00,2353.00
           C 1630.00,2353.00 1629.00,2353.00 1629.00,2353.00
             1629.00,2353.00 1630.00,2354.00 1630.00,2354.00
             1630.00,2354.00 1630.00,2353.00 1630.00,2353.00 Z
           M 1504.00,2354.00
           C 1504.00,2354.00 1503.00,2354.00 1503.00,2354.00
             1503.00,2354.00 1504.00,2355.00 1504.00,2355.00
             1504.00,2355.00 1504.00,2354.00 1504.00,2354.00 Z
           M 1628.00,2354.00
           C 1628.00,2354.00 1627.00,2354.00 1627.00,2354.00
             1627.00,2354.00 1628.00,2355.00 1628.00,2355.00
             1628.00,2355.00 1628.00,2354.00 1628.00,2354.00 Z
           M 1509.00,2357.00
           C 1509.00,2357.00 1508.00,2357.00 1508.00,2357.00
             1508.00,2357.00 1509.00,2358.00 1509.00,2358.00
             1509.00,2358.00 1509.00,2357.00 1509.00,2357.00 Z
           M 1623.00,2357.00
           C 1623.00,2357.00 1622.00,2357.00 1622.00,2357.00
             1622.00,2357.00 1623.00,2358.00 1623.00,2358.00
             1623.00,2358.00 1623.00,2357.00 1623.00,2357.00 Z
           M 1621.00,2358.00
           C 1621.00,2358.00 1620.00,2358.00 1620.00,2358.00
             1620.00,2358.00 1621.00,2359.00 1621.00,2359.00
             1621.00,2359.00 1621.00,2358.00 1621.00,2358.00 Z
           M 1514.00,2360.00
           C 1514.00,2360.00 1513.00,2360.00 1513.00,2360.00
             1513.00,2360.00 1514.00,2361.00 1514.00,2361.00
             1514.00,2361.00 1514.00,2360.00 1514.00,2360.00 Z
           M 1614.00,2362.00
           C 1614.00,2362.00 1613.00,2362.00 1613.00,2362.00
             1613.00,2362.00 1614.00,2363.00 1614.00,2363.00
             1614.00,2363.00 1614.00,2362.00 1614.00,2362.00 Z
           M 1612.00,2363.00
           C 1612.00,2363.00 1611.00,2363.00 1611.00,2363.00
             1611.00,2363.00 1612.00,2364.00 1612.00,2364.00
             1612.00,2364.00 1612.00,2363.00 1612.00,2363.00 Z
           M 1610.00,2364.00
           C 1610.00,2364.00 1609.00,2364.00 1609.00,2364.00
             1609.00,2364.00 1610.00,2365.00 1610.00,2365.00
             1610.00,2365.00 1610.00,2364.00 1610.00,2364.00 Z
           M 1608.00,2366.00
           C 1608.00,2366.00 1607.00,2366.00 1607.00,2366.00
             1607.00,2366.00 1608.00,2367.00 1608.00,2367.00
             1608.00,2367.00 1608.00,2366.00 1608.00,2366.00 Z
           M 1604.00,2368.00
           C 1604.00,2368.00 1603.00,2368.00 1603.00,2368.00
             1603.00,2368.00 1604.00,2369.00 1604.00,2369.00
             1604.00,2369.00 1604.00,2368.00 1604.00,2368.00 Z
           M 1602.00,2369.00
           C 1602.00,2369.00 1601.00,2369.00 1601.00,2369.00
             1601.00,2369.00 1602.00,2370.00 1602.00,2370.00
             1602.00,2370.00 1602.00,2369.00 1602.00,2369.00 Z
           M 1533.00,2371.00
           C 1533.00,2371.00 1532.00,2372.00 1532.00,2372.00
             1543.40,2379.70 1553.59,2390.06 1558.91,2403.00
             1558.91,2403.00 1566.00,2425.00 1566.00,2425.00
             1567.18,2410.63 1573.73,2397.08 1582.79,2386.04
             1582.79,2386.04 1595.00,2373.00 1595.00,2373.00
             1585.00,2375.69 1579.00,2378.87 1568.00,2379.00
             1552.75,2379.17 1546.85,2376.87 1533.00,2371.00 Z
           M 1598.00,2371.00
           C 1598.00,2371.00 1597.00,2371.00 1597.00,2371.00
             1597.00,2371.00 1598.00,2372.00 1598.00,2372.00
             1598.00,2372.00 1598.00,2371.00 1598.00,2371.00 Z
           M 1566.00,2426.00
           C 1566.00,2426.00 1565.00,2448.00 1565.00,2448.00
             1565.00,2448.00 1565.00,2494.00 1565.00,2494.00
             1565.00,2494.00 1565.00,2654.00 1565.00,2654.00
             1565.00,2654.00 1565.00,2707.00 1565.00,2707.00
             1565.00,2707.00 1566.00,2732.00 1566.00,2732.00
             1566.00,2732.00 1566.00,2426.00 1566.00,2426.00 Z
           M 971.00,2473.00
           C 971.00,2473.00 970.00,2494.00 970.00,2494.00
             970.00,2494.00 970.00,2537.00 970.00,2537.00
             970.00,2537.00 970.00,2665.00 970.00,2665.00
             970.00,2665.00 970.00,2705.00 970.00,2705.00
             970.00,2705.00 969.00,2728.00 969.00,2728.00
             969.00,2728.00 1116.00,2813.14 1116.00,2813.14
             1116.00,2813.14 1168.00,2843.23 1168.00,2843.23
             1168.00,2843.23 1194.00,2858.00 1194.00,2858.00
             1194.00,2858.00 1194.00,2610.00 1194.00,2610.00
             1194.00,2610.00 1193.43,2603.38 1193.43,2603.38
             1193.43,2603.38 1179.91,2593.87 1179.91,2593.87
             1179.91,2593.87 1141.00,2571.51 1141.00,2571.51
             1141.00,2571.51 1016.00,2499.13 1016.00,2499.13
             1016.00,2499.13 971.00,2473.00 971.00,2473.00 Z
           M 1491.00,2473.00
           C 1485.49,2475.02 1472.75,2482.78 1467.00,2486.14
             1467.00,2486.14 1425.00,2510.69 1425.00,2510.69
             1425.00,2510.69 1318.00,2572.58 1318.00,2572.58
             1318.00,2572.58 1281.00,2593.86 1281.00,2593.86
             1281.00,2593.86 1274.00,2598.05 1274.00,2598.05
             1267.04,2601.89 1267.02,2602.04 1267.00,2610.00
             1267.00,2610.00 1267.00,2857.00 1267.00,2857.00
             1273.15,2855.53 1283.26,2848.89 1289.00,2845.45
             1289.00,2845.45 1322.00,2826.43 1322.00,2826.43
             1322.00,2826.43 1396.00,2783.42 1396.00,2783.42
             1396.00,2783.42 1441.00,2757.50 1441.00,2757.50
             1441.00,2757.50 1477.29,2736.48 1477.29,2736.48
             1489.39,2729.59 1490.98,2730.73 1491.00,2721.00
             1491.00,2721.00 1491.00,2473.00 1491.00,2473.00 Z
           M 1641.00,2473.00
           C 1641.00,2473.00 1640.00,2494.00 1640.00,2494.00
             1640.00,2494.00 1640.00,2537.00 1640.00,2537.00
             1640.00,2537.00 1640.00,2665.00 1640.00,2665.00
             1640.00,2665.00 1640.00,2705.00 1640.00,2705.00
             1640.00,2705.00 1639.00,2728.00 1639.00,2728.00
             1639.00,2728.00 1654.00,2736.60 1654.00,2736.60
             1654.00,2736.60 1694.00,2759.87 1694.00,2759.87
             1694.00,2759.87 1783.00,2811.31 1783.00,2811.31
             1783.00,2811.31 1835.00,2841.50 1835.00,2841.50
             1835.00,2841.50 1863.00,2857.00 1863.00,2857.00
             1863.00,2857.00 1863.00,2685.00 1863.00,2685.00
             1863.00,2685.00 1863.00,2631.00 1863.00,2631.00
             1863.00,2631.00 1864.00,2602.00 1864.00,2602.00
             1864.00,2602.00 1796.00,2562.50 1796.00,2562.50
             1796.00,2562.50 1711.00,2513.69 1711.00,2513.69
             1711.00,2513.69 1641.00,2473.00 1641.00,2473.00 Z
           M 2161.00,2473.00
           C 2155.00,2474.90 2151.38,2478.11 2146.00,2481.05
             2146.00,2481.05 2109.00,2502.50 2109.00,2502.50
             2109.00,2502.50 1988.00,2572.45 1988.00,2572.45
             1988.00,2572.45 1951.00,2593.96 1951.00,2593.96
             1938.40,2601.69 1937.02,2599.29 1937.00,2610.00
             1937.00,2610.00 1937.00,2857.00 1937.00,2857.00
             1943.83,2855.05 1948.91,2851.29 1955.00,2847.86
             1955.00,2847.86 1992.00,2826.28 1992.00,2826.28
             1992.00,2826.28 2078.00,2776.45 2078.00,2776.45
             2078.00,2776.45 2110.17,2757.99 2110.17,2757.99
             2110.17,2757.99 2147.00,2736.58 2147.00,2736.58
             2161.16,2728.47 2160.98,2730.32 2161.00,2721.00
             2161.00,2721.00 2161.00,2473.00 2161.00,2473.00 Z" />
</svg>
